# SSTK version 0.8.0
# 22
mtllib original-22.mtl
o Leg_-_Part_C2/Leg_-_Part_C12/mesh17/mesh17-geometry#mesh17-geometry
v 0.746181 -0.339416 -0.263048
v 0.691558 -0.339416 -0.263048
v 0.746181 -0.470512 -0.263048
v 0.746181 -0.339416 -0.295823
v 0.691558 -0.470512 -0.263048
v 0.691558 -0.339416 -0.295823
v 0.691558 -0.470512 -0.295823
v 0.746181 -0.470512 -0.295823
vt 0 0.635
vt 0 0
vt -1.524 0.635
vt -0.635 0
vt -0.635 0.381
vt -1.524 0
vt 0 0.381
vt 0.635 0
vt 1.524 0
vt 1.524 0.381
vt -1.524 0.381
vt 0.635 0.381
vt 1.524 0.635
vn 0 0 1
vn 0 0 -1
vn 0 1 0
vn 0 -1 0
vn 1 0 0
vn -1 0 0
usemtl material_0_0
f 1/1/1 2/2/1 3/3/1
f 3/3/2 2/2/2 1/1/2
f 1/4/3 4/5/3 2/2/3
f 2/2/4 4/5/4 1/4/4
f 5/6/1 3/3/1 2/2/1
f 2/2/2 3/3/2 5/6/2
f 1/2/5 3/6/5 4/7/5
f 4/7/6 3/6/6 1/2/6
f 6/7/3 2/2/3 4/5/3
f 4/5/4 2/2/4 6/7/4
f 5/2/4 7/7/4 3/8/4
f 3/8/3 7/7/3 5/2/3
f 5/9/6 2/2/6 7/10/6
f 7/10/5 2/2/5 5/9/5
f 8/11/5 4/7/5 3/6/5
f 3/6/6 4/7/6 8/11/6
f 6/7/6 7/10/6 2/2/6
f 2/2/5 7/10/5 6/7/5
f 6/2/2 4/1/2 7/9/2
f 7/9/1 4/1/1 6/2/1
f 8/12/4 3/8/4 7/7/4
f 7/7/3 3/8/3 8/12/3
f 8/13/2 7/9/2 4/1/2
f 4/1/1 7/9/1 8/13/1
