# SSTK version 0.8.0
# 35
mtllib original-35.mtl
o Edging_-_Long1/Edging_-_Long/mesh29/mesh29-geometry#mesh29-geometry
v -0.892531 0.198628 -0.394145
v -0.914380 0.242327 -0.415995
v -0.914380 0.198628 -0.415995
v -0.892531 0.242327 -0.394145
v 0.877278 0.198628 -0.415995
v 0.855429 0.198628 -0.394145
v 0.855429 0.242327 -0.394145
v 0.877278 0.242327 -0.415995
vt -14.36841 0
vt -14.72762 0.508
vt -14.72762 0
vt -14.36841 0.508
vt 20.828 0.508
vt 0 0
vt 20.828 0
vt -20.828 0
vt -0.254 0.254
vt -20.574 0.254
vt -20.574 0
vt -0.254 0.508
vt -20.574 0.508
vt 0.254 0.254
vt 20.574 0.254
vt 0 0.508
vt -0.254 0
vt -0.35921 0
vt -0.35921 0.508
vn -0.7071067811865476 0 0.7071067811865476
vn 0.7071067811865476 0 -0.7071067811865476
vn 0 0 -1
vn 0 0 1
vn 0 -1 0
vn 0 1 0
vn 0.7071067811865476 0 0.7071067811865476
vn -0.7071067811865476 0 -0.7071067811865476
usemtl material_0_0
f 1/1/1 2/2/1 3/3/1
f 2/2/1 1/1/1 4/4/1
f 3/3/2 2/2/2 1/1/2
f 4/4/2 1/1/2 2/2/2
f 2/5/3 5/6/3 3/7/3
f 3/7/4 5/6/4 2/5/4
f 3/8/5 6/9/5 1/10/5
f 1/10/6 6/9/6 3/8/6
f 1/11/4 7/12/4 4/13/4
f 4/13/3 7/12/3 1/11/3
f 7/14/6 2/7/6 4/15/6
f 4/15/5 2/7/5 7/14/5
f 5/6/3 2/5/3 8/16/3
f 8/16/4 2/5/4 5/6/4
f 6/9/5 3/8/5 5/6/5
f 5/6/6 3/8/6 6/9/6
f 7/12/4 1/11/4 6/17/4
f 6/17/3 1/11/3 7/12/3
f 2/7/6 7/14/6 8/6/6
f 8/6/5 7/14/5 2/7/5
f 8/16/7 6/18/7 5/6/7
f 5/6/8 6/18/8 8/16/8
f 6/18/7 8/16/7 7/19/7
f 7/19/8 8/16/8 6/18/8
