# SSTK version 0.8.0
# 37
mtllib original-37.mtl
o Edging_-_Short1/Edging_-_Short/mesh33/mesh33-geometry#mesh33-geometry
v 0.855429 0.198628 0.392436
v 0.855429 0.242327 -0.394145
v 0.855429 0.198628 -0.394145
v 0.855429 0.242327 0.392436
v 0.877278 0.242327 -0.415995
v 0.877278 0.198628 0.414286
v 0.877278 0.242327 0.414286
v 0.877278 0.198628 -0.415995
vt 9.398 0
vt 0.254 0.508
vt 0.254 0
vt 9.398 0.508
vt 0 0.508
vt 0.35921 0
vt 0.35921 0.508
vt -0.254 0.254
vt 0 9.652
vt -0.254 9.398
vt 6.824995 0
vt 6.465784 0.508
vt 6.465784 0
vt 0.254 0.254
vt 0.254 9.398
vt 0 0
vt 6.824995 0.508
vt -9.652 0.508
vt -9.652 0
vn -1 0 0
vn 1 0 0
vn -0.7071067811865476 0 -0.7071067811865476
vn 0.7071067811865476 0 0.7071067811865476
vn 0 -1 0
vn 0 1 0
vn -0.7071067811865476 0 0.7071067811865476
vn 0.7071067811865476 0 -0.7071067811865476
usemtl material_0_0
f 1/1/1 2/2/1 3/3/1
f 2/2/1 1/1/1 4/4/1
f 3/3/2 2/2/2 1/1/2
f 4/4/2 1/1/2 2/2/2
f 5/5/3 3/6/3 2/7/3
f 2/7/4 3/6/4 5/5/4
f 3/8/5 6/9/5 1/10/5
f 1/10/6 6/9/6 3/8/6
f 6/11/7 4/12/7 1/13/7
f 1/13/8 4/12/8 6/11/8
f 7/9/6 2/14/6 4/15/6
f 4/15/5 2/14/5 7/9/5
f 3/6/3 5/5/3 8/16/3
f 8/16/4 5/5/4 3/6/4
f 2/14/6 7/9/6 5/16/6
f 5/16/5 7/9/5 2/14/5
f 6/9/5 3/8/5 8/16/5
f 8/16/6 3/8/6 6/9/6
f 4/12/7 6/11/7 7/17/7
f 7/17/8 6/11/8 4/12/8
f 7/18/2 8/16/2 5/5/2
f 5/5/1 8/16/1 7/18/1
f 8/16/2 7/18/2 6/19/2
f 6/19/1 7/18/1 8/16/1
