# SSTK version 0.8.0
# 22
mtllib original-22.mtl
o B_9_2/B_9_1_2/mesh16/mesh16-geometry#mesh16-geometry
v 0.641046 0.560276 0.284744
v 0.641046 0.560276 -0.336816
v 0.528035 0.560276 0.284744
v 0.528035 0.560276 -0.336816
v 0.528035 0.541441 -0.336816
v 0.528035 0.541441 0.284744
v 0.641046 0.541441 -0.336816
v 0.641046 0.541441 0.284744
vt -1.556119 -2.644344
vt -1.556119 -3.113094
vt -1.618619 -2.644344
vt -1.618619 -3.113094
vt -1.629036 -3.113094
vt -1.629036 -2.644344
vt -1.691536 -3.113094
vt -1.691536 -2.644344
vn 0 1 0
vn -1 0 0
vn 0 -1 0
vn 1 0 0
usemtl material_0_0
f 1/1/1 2/2/1 3/3/1
f 4/4/1 3/3/1 2/2/1
f 4/4/2 5/5/2 3/3/2
f 6/6/2 3/3/2 5/5/2
f 5/5/3 7/7/3 6/6/3
f 8/8/3 6/6/3 7/7/3
usemtl material_1_0
f 3//3 2//3 1//3
f 2//3 3//3 4//3
f 3//4 5//4 4//4
f 5//4 3//4 6//4
f 6//1 7//1 5//1
f 7//1 6//1 8//1
