# SSTK version 0.8.0
# 17
mtllib original-17.mtl
o fpndo_cassetto1/fpndo_cassetto/mesh19/mesh19-geometry#mesh19-geometry
v 0.363365 -0.037144 -0.007692
v 0.363365 -0.038190 -0.006646
v 0.363365 -0.052833 -0.007692
v 0.363365 -0.037144 0.445825
v 0.363365 -0.051787 -0.006646
v 0.362319 -0.051787 -0.007692
v -0.383921 -0.037144 -0.007692
v 0.363365 -0.038190 0.444779
v 0.363365 -0.052833 0.445825
v 0.364411 -0.051787 -0.006646
v -0.382875 -0.051787 -0.007692
v 0.362319 -0.038190 -0.007692
v -0.383921 -0.037144 0.445825
v 0.363365 -0.051787 0.444779
v 0.364411 -0.038190 0.444779
v -0.383921 -0.052833 -0.007692
v 0.364411 -0.038190 -0.006646
v 0.364411 -0.051787 0.444779
v 0.362319 -0.051787 -0.008738
v -0.383921 -0.038190 -0.006646
v 0.362319 -0.038190 0.445825
v -0.382875 -0.038190 -0.007692
v -0.383921 -0.052833 0.445825
v -0.382875 -0.051787 -0.008738
v 0.362319 -0.038190 -0.008738
v -0.383921 -0.038190 0.444779
v 0.362319 -0.051787 0.445825
v -0.382875 -0.038190 0.445825
v -0.382875 -0.038190 -0.008738
v -0.382875 -0.051787 0.445825
v -0.383921 -0.051787 -0.006646
v -0.384966 -0.038190 -0.006646
v -0.383921 -0.051787 0.444779
v 0.362319 -0.038190 0.446871
v -0.382875 -0.038190 0.446871
v -0.384966 -0.038190 0.444779
v -0.384966 -0.051787 0.444779
v 0.362319 -0.051787 0.446871
v -0.382875 -0.051787 0.446871
v -0.384966 -0.051787 -0.006646
vt -5.018295 1
vt -5.017075 0.997694
vt -5 1
vt -5.018295 0
vt 21.030786 -13.19743
vt 20.960786 -13.206885
vt 20.955786 -13.19743
vt 20.955786 -17.296999
vt -5.00122 0.997694
vt 21.025786 -13.206885
vt -4.9986 1.002647
vt -5 1.0397
vt 20.955786 -38.199604
vt 21.025786 -38.190149
vt 21.030786 -38.199604
vt 27.219034 -13.19743
vt 27.219034 -17.296999
vt 23.646713 -13.19743
vt -5.017075 0.002306
vt 20.960786 -17.287544
vt -5 0
vt 21.030786 -17.296999
vt -5 1.0321
vt -5.0014 0.997694
vt -5 0.997694
vt 21.025786 -28.744829
vt 21.025786 -28.754284
vt 20.960786 -28.744829
vt -4.0014 1.002647
vt 21.025786 -31.453959
vt -4.9986 1.037053
vt 20.960786 -38.190149
vt 23.646713 -17.296999
vt -4 1.0397
vt 20.955786 -31.444504
vt -5.00122 0.002306
vt 21.025786 -17.287544
vt -2.041908 0.002306
vt -2.043307 0.997694
vt -2.043307 0.002306
vt 27.219034 -17.287544
vt 27.219034 -13.206885
vt 27.224034 -17.287544
vt -4 1
vt 27.219034 -55.479124
vt 23.646713 -55.479124
vt 27.219034 -51.379556
vt -5.0014 1.0321
vt 20.960786 -28.754284
vt -5.0014 0.002306
vt 27.224034 -36.56012
vt 27.219034 -36.56012
vt 27.224034 -32.479461
vt 21.030786 -31.444504
vt -4.0014 1
vt -4.9986 1.002306
vt -4.9986 1
vt 27.214034 -46.02435
vt 27.214034 -46.033805
vt 23.651713 -46.02435
vt -4.9986 1.901258
vt -4.99982 1.93124
vt -4.99982 1.901258
vt 21.025786 -22.652205
vt 20.960786 -22.652205
vt 21.025786 -22.64275
vt -3.981705 1
vt -3.982925 0.997694
vt -3.981705 0
vt 20.955786 -51.379556
vt 20.960786 -55.46967
vt 20.955786 -55.479124
vt -4.9986 -0.037053
vt -5 -0.0397
vt -4 -0.0397
vt 20.955786 -37.232051
vt 20.955786 -30.476951
vt 20.960786 -30.486406
vt -4.0014 1.037053
vt 20.960786 -31.453959
vt -5 0.002306
vt -5.0014 -0.0321
vt -5 -0.0321
vt 20.960786 -21.022177
vt 20.960786 -21.012722
vt 21.025786 -21.022177
vt -2.041908 0.997694
vt 27.224034 -13.206885
vt 27.219034 -32.479461
vt -4 0
vt 23.646713 -51.379556
vt -5.017255 0.002306
vt -5.017255 0.997694
vt -4.0014 1.002306
vt 23.651713 -46.033805
vt -4.9986 1.93124
vt 20.960786 -22.64275
vt 21.030786 -55.479124
vt -3.982925 0.002306
vt 20.960786 -51.389011
vt -4.9986 -0.002647
vt 21.025786 -30.486406
vt -4.0014 -0.037053
vt 20.960786 -37.222596
vt -4.9986 1.933886
vt -4.0014 1.93124
vt -4.0014 1.933886
vt 23.651713 -22.652205
vt 23.651713 -22.64275
vt 27.214034 -22.652205
vt 21.030786 -30.476951
vt 21.025786 -21.012722
vt -4.0014 -0.002647
vt 21.030786 -37.232051
vt 21.025786 -37.222596
vt -3.99878 0.997694
vt 21.030786 -51.379556
vt 21.025786 -55.46967
vt -4.00018 1.93124
vt -4.0014 1.901258
vt -4.00018 1.901258
vt 21.025786 -46.02435
vt 21.025786 -46.033805
vt 20.960786 -46.02435
vt 27.214034 -22.64275
vt -3.812062 1.93124
vt -3.207977 1.933886
vt -3.812062 1.933886
vt 23.646713 -32.116435
vt 23.646713 -36.197094
vt 23.641713 -32.116435
vt -3.99878 0.002306
vt 21.025786 -51.389011
vt -2.044707 1.93124
vt -2.043487 1.901258
vt -2.043487 1.93124
vt 20.960786 -26.751774
vt 21.025786 -26.751774
vt 20.960786 -26.761229
vt -3.041908 1.93124
vt -2.044707 1.933886
vt -3.041908 1.933886
vt 23.651713 -26.751774
vt 27.214034 -26.751774
vt 23.651713 -26.761229
vt 20.960786 -46.033805
vt -3.813282 1.901258
vt -3.813282 1.93124
vt 20.960786 -40.899279
vt 20.960786 -40.889824
vt 21.025786 -40.899279
vt -3.207977 1.93124
vt 23.641713 -36.197094
vt -4 -0.0321
vt -3.9986 0.002306
vt -4 0.002306
vt 21.025786 -46.686826
vt 21.025786 -46.69628
vt 20.960786 -46.686826
vt -2.044707 1.901258
vt 21.025786 -26.761229
vt 27.214034 -26.761229
vt -3.043127 1.901258
vt -3.043127 1.93124
vt 20.960786 -41.924781
vt 20.960786 -41.915326
vt 21.025786 -41.924781
vt -4.9986 0
vt -4.0014 -0.002306
vt -4.0014 0
vt 23.651713 -41.924781
vt 23.651713 -41.915326
vt 27.214034 -41.924781
vt -4 0.997694
vt 23.646713 -51.389011
vt 23.646713 -55.46967
vt 23.641713 -51.389011
vt -3.812062 1.901258
vt 21.025786 -40.889824
vt -3.9986 -0.0321
vt 20.960786 -46.69628
vt -4.9986 -0.002306
vt 27.214034 -41.915326
vt -3.041908 1.901258
vt 21.025786 -41.915326
vt -3.9986 0.997694
vt 23.641713 -55.46967
vt -3.207977 1.901258
vt 1.172022 0
vt 0 0.711282
vt 0 0
vt 1.172022 0.711282
vn 1 0 0
vn -1 0 0
vn 0 0 -1
vn 0 0 1
vn 0 -1 0
vn 0 1 0
usemtl material_0_0
f 1/1/1 2/2/1 3/3/1
f 2/2/1 1/1/1 4/4/1
f 3/5/2 2/6/2 1/7/2
f 4/8/2 1/7/2 2/6/2
f 5/9/1 3/3/1 2/2/1
f 2/6/2 3/5/2 5/10/2
f 3/3/3 6/11/3 1/12/3
f 1/13/4 6/14/4 3/15/4
f 1/16/5 4/17/5 7/18/5
f 2/2/1 4/4/1 8/19/1
f 8/20/2 4/8/2 2/6/2
f 3/3/1 5/9/1 9/21/1
f 9/22/2 5/10/2 3/5/2
f 2/23/3 10/24/3 5/25/3
f 5/26/4 10/27/4 2/28/4
f 6/11/3 3/3/3 11/29/3
f 11/30/4 3/15/4 6/14/4
f 1/12/3 6/11/3 12/31/3
f 12/32/4 6/14/4 1/13/4
f 13/33/5 7/18/5 4/17/5
f 1/12/3 12/31/3 7/34/3
f 7/35/4 12/32/4 1/13/4
f 8/19/1 4/4/1 14/36/1
f 14/37/2 4/8/2 8/20/2
f 15/38/6 2/39/6 8/40/6
f 8/41/5 2/42/5 15/43/5
f 9/21/1 5/9/1 14/36/1
f 14/37/2 5/10/2 9/22/2
f 9/21/5 16/44/5 3/3/5
f 3/45/6 16/46/6 9/47/6
f 10/24/3 2/23/3 17/48/3
f 17/49/4 2/28/4 10/27/4
f 18/50/5 5/25/5 10/24/5
f 10/51/6 5/52/6 18/53/6
f 16/44/3 11/29/3 3/3/3
f 3/15/4 11/30/4 16/54/4
f 11/55/5 19/56/5 6/57/5
f 6/58/6 19/59/6 11/60/6
f 19/61/1 12/62/1 6/63/1
f 6/64/2 12/65/2 19/66/2
f 7/67/2 20/68/2 13/69/2
f 13/70/1 20/71/1 7/72/1
f 21/73/4 4/74/4 13/75/4
f 13/76/3 4/77/3 21/78/3
f 22/79/3 7/34/3 12/31/3
f 12/32/4 7/35/4 22/80/4
f 9/21/1 14/36/1 4/4/1
f 4/8/2 14/37/2 9/22/2
f 14/81/4 15/82/4 8/83/4
f 8/84/3 15/85/3 14/86/3
f 2/39/6 15/38/6 17/87/6
f 17/88/5 15/43/5 2/42/5
f 5/25/5 18/50/5 14/81/5
f 14/89/6 18/53/6 5/52/6
f 16/44/5 9/21/5 23/90/5
f 23/91/6 9/47/6 16/46/6
f 15/92/1 10/24/1 17/93/1
f 17/6/2 10/10/2 15/20/2
f 10/24/1 15/92/1 18/50/1
f 18/37/2 15/20/2 10/10/2
f 11/29/3 16/44/3 7/34/3
f 7/35/4 16/54/4 11/30/4
f 19/56/5 11/55/5 24/94/5
f 24/95/6 11/60/6 19/59/6
f 12/62/1 19/61/1 25/96/1
f 25/97/2 19/66/2 12/65/2
f 20/68/2 7/67/2 16/44/2
f 16/98/1 7/72/1 20/71/1
f 13/69/2 20/68/2 26/99/2
f 26/100/1 20/71/1 13/70/1
f 27/101/4 4/74/4 21/73/4
f 21/78/3 4/77/3 27/102/3
f 13/75/4 28/103/4 21/73/4
f 21/78/3 28/104/3 13/76/3
f 11/29/3 7/34/3 22/79/3
f 22/80/4 7/35/4 11/30/4
f 12/105/6 29/106/6 22/107/6
f 22/108/5 29/109/5 12/110/5
f 27/101/4 9/21/4 4/74/4
f 4/77/3 9/111/3 27/102/3
f 15/82/4 14/81/4 18/50/4
f 18/112/3 14/86/3 15/85/3
f 30/113/4 23/90/4 9/21/4
f 9/111/3 23/114/3 30/115/3
f 31/116/2 16/44/2 23/90/2
f 23/117/1 16/98/1 31/118/1
f 22/119/2 24/120/2 11/121/2
f 11/122/1 24/123/1 22/124/1
f 29/106/3 19/61/3 24/120/3
f 24/30/4 19/14/4 29/80/4
f 19/61/3 29/106/3 25/96/3
f 25/32/4 29/80/4 19/14/4
f 29/106/6 12/105/6 25/96/6
f 25/125/5 12/110/5 29/109/5
f 16/44/2 31/116/2 20/68/2
f 20/71/1 31/118/1 16/98/1
f 32/126/6 26/127/6 20/128/6
f 20/129/5 26/130/5 32/131/5
f 13/69/2 26/99/2 33/132/2
f 33/133/1 26/100/1 13/70/1
f 34/134/1 27/135/1 21/136/1
f 21/137/2 27/138/2 34/139/2
f 13/75/4 30/113/4 28/103/4
f 28/104/3 30/115/3 13/76/3
f 35/140/6 21/141/6 28/142/6
f 28/143/5 21/144/5 35/145/5
f 24/120/2 22/119/2 29/106/2
f 29/146/1 22/124/1 24/123/1
f 9/21/4 27/101/4 30/113/4
f 30/115/3 27/102/3 9/111/3
f 23/90/4 30/113/4 13/75/4
f 13/76/3 30/115/3 23/114/3
f 31/116/2 23/90/2 33/132/2
f 33/133/1 23/117/1 31/118/1
f 31/147/3 32/126/3 20/148/3
f 20/149/4 32/150/4 31/151/4
f 26/127/6 32/126/6 36/152/6
f 36/153/5 32/131/5 26/130/5
f 26/154/4 37/155/4 33/156/4
f 33/157/3 37/158/3 26/159/3
f 33/132/2 23/90/2 13/69/2
f 13/70/1 23/117/1 33/133/1
f 27/135/1 34/134/1 38/160/1
f 38/161/2 34/139/2 27/138/2
f 21/141/6 35/140/6 34/134/6
f 34/162/5 35/145/5 21/144/5
f 30/163/2 35/140/2 28/164/2
f 28/165/1 35/166/1 30/167/1
f 27/168/5 39/169/5 30/170/5
f 30/171/6 39/172/6 27/173/6
f 37/155/5 31/174/5 33/156/5
f 33/175/6 31/176/6 37/177/6
f 32/126/3 31/147/3 40/178/3
f 40/179/4 31/151/4 32/150/4
f 40/178/2 36/152/2 32/126/2
f 32/71/1 36/100/1 40/118/1
f 37/155/4 26/154/4 36/180/4
f 36/181/3 26/159/3 37/158/3
f 35/140/4 38/160/4 34/134/4
f 34/78/3 38/102/3 35/104/3
f 39/169/5 27/168/5 38/182/5
f 38/183/6 27/173/6 39/172/6
f 35/140/2 30/163/2 39/184/2
f 39/185/1 30/167/1 35/166/1
f 31/174/5 37/155/5 40/186/5
f 40/187/6 37/177/6 31/176/6
f 36/152/2 40/178/2 37/188/2
f 37/133/1 40/118/1 36/100/1
f 38/160/4 35/140/4 39/184/4
f 39/115/3 35/104/3 38/102/3
usemtl material_1_0
f 7/189/6 4/190/6 1/191/6
f 4/190/6 7/189/6 13/192/6
