# SSTK version 0.8.0
# 29
mtllib original-29.mtl
o gamba_tavolo_1_2/gamba_tavolo_1/mesh25/mesh25-geometry#mesh25-geometry
v -0.638524 -0.493142 -0.321457
v -0.638524 -0.606438 -0.376892
v -0.638524 -0.493142 -0.376892
v -0.638524 -0.606438 -0.321457
v -0.643754 -0.606438 -0.382121
v -0.643754 -0.490004 -0.321457
v -0.643754 -0.493142 -0.316227
v -0.643754 -0.610078 -0.376892
v -0.643754 -0.493142 -0.382121
v -0.643754 -0.490004 -0.376892
v -0.643754 -0.606438 -0.316227
v -0.643754 -0.610078 -0.321457
v -0.699188 -0.493142 -0.382121
v -0.699188 -0.610078 -0.376892
v -0.699188 -0.490004 -0.321457
v -0.699188 -0.493142 -0.316227
v -0.699188 -0.606438 -0.316227
v -0.699188 -0.610078 -0.321457
v -0.699188 -0.606438 -0.382121
v -0.699188 -0.490004 -0.376892
v -0.704418 -0.606438 -0.376892
v -0.704418 -0.493142 -0.376892
v -0.704418 -0.606438 -0.321457
v -0.704418 -0.493142 -0.321457
vt 2.468176 5.269802
vt 1.926576 4.872302
vt 2.468176 4.872302
vt 1.926576 5.269802
vt -0.025 6.6
vt -0.025 1.5225
vt -0.29 6.6
vt -0.29 1.5225
vt 1.926576 4.819269
vt -0.017678 1.5225
vt -0.017678 6.6
vt 0.017678 1.5225
vt 0.933561 12.135716
vt 0.962715 12.533216
vt 0.933561 12.533216
vt -0.29 6.377151
vt -0.29 6.52269
vt -0.025 6.377151
vt -3.259719 10.016651
vt -3.801319 9.963618
vt -3.259719 9.963618
vt -0.205061 6.6
vt -0.205061 1.5225
vt -0.240416 6.6
vt 1.896117 4.872302
vt -0.025 1.483798
vt -0.025 1.316418
vt -0.29 1.483798
vt 2.468176 4.819269
vt 0.017678 6.6
vt 1.901772 4.845786
vt -0.017678 1.498521
vt 0.017678 1.498521
vt 0 1.333254
vt 0.962715 12.135716
vt -0.025 6.52269
vt -3.236535 9.990135
vt -0.222739 6.571813
vt -0.205061 6.42871
vt -0.240416 6.42871
vt -3.801319 10.016651
vt -0.240416 1.5225
vt 1.896117 5.269802
vt -0.29 1.316418
vt 2.468176 4.421769
vt 0.025 6.6
vt 0.29 6.6
vt 0.025 1.5225
vt 2.49136 4.845786
vt 0 6.633722
vt 0.017678 6.490619
vt -0.017678 6.490619
vt 1.631117 4.872302
vt 1.896117 4.826614
vt 0.025 1.316418
vt 0.025 1.483798
vt 0.29 1.316418
vt 1.227715 12.533216
vt 0.025 0.435
vt 0.29 0.435
vt 0.025 0.0375
vt -3.230564 10.016651
vt -3.259719 10.414151
vt -0.025 6.255405
vt -0.29 6.255405
vt -0.025 6.400944
vt -3.801319 10.414151
vt -3.826123 9.990135
vt -0.205061 1.552127
vt -0.222739 1.386861
vt -0.240416 1.552127
vt 1.631117 5.269802
vt -0.025 0.435
vt -0.025 0.0375
vt -0.29 0.435
vt 1.926576 4.421769
vt 0.29 1.5225
vt 1.227715 12.135716
vt 0.962715 12.091984
vt 1.227715 12.091984
vt 0.29 6.377151
vt 0.025 6.377151
vt 0.29 6.52269
vt 0.025 6.52269
vt 1.631117 4.826614
vt 0.29 1.483798
vt -0.29 0.0375
vt 0.29 0.0375
vt -3.230564 10.414151
vt -0.29 6.400944
vt 1.896117 5.315491
vt 1.631117 5.315491
vt -0.29 1.589657
vt -0.025 1.589657
vt -0.29 1.422277
vt -0.025 1.422277
vt -3.801319 10.864684
vt -3.259719 10.917717
vt -3.801319 10.917717
vt 0.205061 1.5225
vt 0.205061 6.6
vt 0.240416 1.5225
vt -3.236535 10.891201
vt -3.259719 10.864684
vt 0.240416 6.42871
vt 0.205061 6.42871
vt 0.222739 6.571813
vt -3.826123 10.891201
vt 0.205061 1.552127
vt 0.240416 1.552127
vt 0.222739 1.386861
vt -3.801319 10.467184
vt -3.831778 10.864684
vt -3.831778 10.467184
vt 0.29 1.422277
vt 0.025 1.422277
vt 0.29 1.589657
vt -3.230564 10.864684
vt -3.259719 10.467184
vt -3.230564 10.467184
vt 0.29 6.400944
vt 0.29 6.255405
vt 0.025 6.400944
vt -3.236535 10.440668
vt -0.017678 6.366801
vt 0 6.509904
vt 0.017678 6.366801
vt -3.826123 10.440668
vt 0 1.440468
vt -0.017678 1.605734
vt 0.017678 1.605734
vt 0.240416 6.6
vt 0.025 6.255405
vt 0.025 1.589657
vn 1 0 0
vn -1 0 0
vn 0.7071067811865475 0 -0.7071067811865475
vn -0.7071067811865475 0 0.7071067811865475
vn 0.5144952660209544 0.8574932193562976 0
vn -0.5144952660209544 -0.8574932193562976 0
vn 0.7071067811865475 0 0.7071067811865475
vn -0.7071067811865475 0 -0.7071067811865475
vn 0.5712575086799441 -0.820770892988283 0
vn -0.5712575086799441 0.820770892988283 0
vn 0.49602709465569017 -0.7126810245368331 -0.49602709465569034
vn -0.49602709465569017 0.7126810245368331 0.49602709465569034
vn 0.45749647657763665 0.7624919329659139 0.4574964765776368
vn -0.45749647657763665 -0.7624919329659139 -0.4574964765776368
vn 0 0 -1
vn 0 0 1
vn 0.45749647657763665 0.7624919329659141 -0.4574964765776365
vn -0.45749647657763665 -0.7624919329659141 0.4574964765776365
vn 0 -0.8207708929882829 -0.5712575086799443
vn 0 0.8207708929882829 0.5712575086799443
vn 0 1 0
vn 0 -1 0
vn 0 0.8574932193562975 0.5144952660209546
vn 0 -0.8574932193562975 -0.5144952660209546
vn 0.49602709465569006 -0.7126810245368332 0.4960270946556899
vn -0.49602709465569006 0.7126810245368332 -0.4960270946556899
vn 0 0.8574932193562977 -0.5144952660209542
vn 0 -0.8574932193562977 0.5144952660209542
vn 0 -0.8207708929882831 0.5712575086799438
vn 0 0.8207708929882831 -0.5712575086799438
vn -0.45749647657763665 0.7624919329659141 -0.4574964765776365
vn 0.45749647657763665 -0.7624919329659141 0.4574964765776365
vn -0.49602709465569017 -0.7126810245368331 -0.49602709465569034
vn 0.49602709465569017 0.7126810245368331 0.49602709465569034
vn -0.5712575086799441 -0.820770892988283 0
vn 0.5712575086799441 0.820770892988283 0
vn -0.5144952660209544 0.8574932193562976 0
vn 0.5144952660209544 -0.8574932193562976 0
vn -0.45749647657763665 0.7624919329659139 0.4574964765776368
vn 0.45749647657763665 -0.7624919329659139 -0.4574964765776368
vn -0.49602709465569006 -0.7126810245368332 0.4960270946556899
vn 0.49602709465569006 0.7126810245368332 -0.4960270946556899
usemtl material_0_0
f 1/1/1 2/2/1 3/3/1
f 2/2/1 1/1/1 4/4/1
f 3/5/2 2/6/2 1/7/2
f 4/8/2 1/7/2 2/6/2
f 5/9/3 3/3/3 2/2/3
f 2/10/4 3/11/4 5/12/4
f 3/13/5 6/14/5 1/15/5
f 1/16/6 6/17/6 3/18/6
f 7/19/7 4/20/7 1/21/7
f 1/22/8 4/23/8 7/24/8
f 4/4/9 8/25/9 2/2/9
f 2/26/10 8/27/10 4/28/10
f 3/3/3 5/9/3 9/29/3
f 9/30/4 5/12/4 3/11/4
f 8/31/11 5/9/11 2/2/11
f 2/32/12 5/33/12 8/34/12
f 6/14/5 3/13/5 10/35/5
f 10/36/6 3/18/6 6/17/6
f 7/19/13 1/21/13 6/37/13
f 6/38/14 1/39/14 7/40/14
f 4/20/7 7/19/7 11/41/7
f 11/42/8 7/24/8 4/23/8
f 8/25/9 4/4/9 12/43/9
f 12/44/10 4/28/10 8/27/10
f 5/9/15 13/45/15 9/29/15
f 9/46/16 13/47/16 5/48/16
f 3/3/17 9/29/17 10/49/17
f 10/50/18 9/51/18 3/52/18
f 14/53/19 5/54/19 8/25/19
f 8/55/20 5/56/20 14/57/20
f 10/35/21 15/58/21 6/14/21
f 6/59/22 15/60/22 10/61/22
f 6/62/23 16/63/23 7/19/23
f 7/64/24 16/65/24 6/66/24
f 7/19/16 17/67/16 11/41/16
f 11/6/15 17/8/15 7/5/15
f 11/41/25 12/68/25 4/20/25
f 4/69/26 12/70/26 11/71/26
f 18/72/22 8/25/22 12/43/22
f 12/73/21 8/74/21 18/75/21
f 13/45/15 5/9/15 19/76/15
f 19/77/16 5/48/16 13/47/16
f 20/78/27 9/79/27 13/80/27
f 13/81/28 9/82/28 20/83/28
f 9/79/27 20/78/27 10/35/27
f 10/84/28 20/83/28 9/82/28
f 5/54/19 14/53/19 19/85/19
f 19/86/20 14/57/20 5/56/20
f 8/25/22 18/72/22 14/53/22
f 14/87/21 18/75/21 8/74/21
f 15/58/21 10/35/21 20/78/21
f 20/88/22 10/61/22 15/60/22
f 16/63/23 6/62/23 15/89/23
f 15/90/24 6/66/24 16/65/24
f 17/67/16 7/19/16 16/63/16
f 16/7/15 7/5/15 17/8/15
f 18/72/29 11/91/29 17/92/29
f 17/93/30 11/94/30 18/95/30
f 11/91/29 18/72/29 12/43/29
f 12/96/30 18/95/30 11/94/30
f 21/97/8 13/98/8 19/99/8
f 19/100/7 13/101/7 21/102/7
f 20/103/31 13/98/31 22/104/31
f 22/105/32 13/106/32 20/107/32
f 14/108/33 21/97/33 19/99/33
f 19/109/34 21/110/34 14/111/34
f 23/112/35 14/113/35 18/114/35
f 18/115/36 14/116/36 23/117/36
f 20/118/37 24/119/37 15/120/37
f 15/121/38 24/122/38 20/123/38
f 16/63/39 15/124/39 24/119/39
f 24/125/40 15/126/40 16/127/40
f 16/63/4 23/112/4 17/67/4
f 17/12/3 23/10/3 16/30/3
f 17/67/41 23/112/41 18/128/41
f 18/129/42 23/130/42 17/131/42
f 13/98/8 21/97/8 22/104/8
f 22/132/7 21/102/7 13/101/7
f 24/119/37 20/118/37 22/104/37
f 22/133/38 20/123/38 24/122/38
f 14/113/35 23/112/35 21/97/35
f 21/134/36 23/117/36 14/116/36
f 23/112/4 16/63/4 24/119/4
f 24/11/3 16/30/3 23/10/3
f 21/97/2 24/119/2 22/104/2
f 22/46/1 24/47/1 21/48/1
f 24/119/2 21/97/2 23/112/2
f 23/77/1 21/48/1 24/47/1
