# SSTK version 0.8.0
# 47
mtllib original-47.mtl
o Piano_Tavolo_2_1/Piano_Tavolo_2/mesh37/mesh37-geometry#mesh37-geometry
v -0.712618 0.057022 0.346705
v 0.691257 0.057022 -0.418359
v 0.691257 0.057022 0.346705
v -0.712618 0.057022 -0.418359
v 0.691257 0.072711 -0.418359
v -0.712618 0.072711 0.346705
v -0.712618 0.072711 -0.418359
v 0.691257 0.072711 0.346705
vt -6.140948 5.898882
vt 1.075269 0
vt 1.075269 5.898882
vt -6.140948 0
vt 0 0.1125
vt -3.932588 0
vt 0 0
vt -6.140948 0.1125
vt 3.932588 0
vt 6.140948 0.1125
vt -1.075269 0
vt 6.140948 0
vt -3.932588 0.1125
vt -1.075269 0.1125
vt 1.075269 0.1125
vt 3.932588 0.1125
vt 6.140948 5.898882
vt -1.075269 5.898882
vn 0 -1 0
vn 0 1 0
vn 1 0 0
vn -1 0 0
vn 0 0 1
vn 0 0 -1
usemtl material_0_0
f 1/1/1 2/2/1 3/3/1
f 2/2/1 1/1/1 4/4/1
f 3/3/2 2/2/2 1/1/2
f 4/4/2 1/1/2 2/2/2
f 5/5/3 3/6/3 2/7/3
f 2/7/4 3/6/4 5/5/4
f 3/2/5 6/8/5 1/4/5
f 1/4/6 6/8/6 3/2/6
f 1/9/4 7/5/4 4/7/4
f 4/7/3 7/5/3 1/9/3
f 7/10/6 2/11/6 4/12/6
f 4/12/5 2/11/5 7/10/5
f 3/6/3 5/5/3 8/13/3
f 8/13/4 5/5/4 3/6/4
f 2/11/6 7/10/6 5/14/6
f 5/14/5 7/10/5 2/11/5
f 6/8/5 3/2/5 8/15/5
f 8/15/6 3/2/6 6/8/6
f 7/5/4 1/9/4 6/16/4
f 6/16/3 1/9/3 7/5/3
f 5/11/2 6/17/2 8/18/2
f 8/18/1 6/17/1 5/11/1
f 6/17/2 5/11/2 7/12/2
f 7/12/1 5/11/1 6/17/1
