# SSTK version 0.8.0
# 54
mtllib original-54.mtl
o angolo_sbalzo1/angolo_sbalzo/mesh55/mesh55-geometry#mesh55-geometry
v 0.709584 0.088283 -0.436686
v 0.691257 0.088400 -0.447122
v 0.711595 0.088400 -0.438697
v 0.691257 0.088283 -0.444278
v 0.691257 0.088400 -0.418359
v 0.717176 0.088283 -0.418359
v 0.707587 0.087930 -0.434689
v 0.720020 0.088400 -0.418359
v 0.714351 0.087930 -0.418359
v 0.691257 0.087930 -0.441453
v 0.705617 0.087344 -0.432719
v 0.711565 0.087344 -0.418359
v 0.691257 0.087344 -0.438667
v 0.703689 0.086527 -0.430791
v 0.708838 0.086527 -0.418359
v 0.691257 0.086527 -0.435940
v 0.701815 0.085486 -0.428917
v 0.706189 0.085486 -0.418359
v 0.691257 0.085486 -0.433291
v 0.700009 0.084228 -0.427111
v 0.703635 0.084228 -0.418359
v 0.691257 0.084228 -0.430737
v 0.698284 0.082762 -0.425386
v 0.701195 0.082762 -0.418359
v 0.691257 0.082762 -0.428297
v 0.696651 0.081098 -0.423753
v 0.698885 0.081098 -0.418359
v 0.691257 0.081098 -0.425987
v 0.695121 0.079247 -0.422223
v 0.696722 0.079247 -0.418359
v 0.691257 0.079247 -0.423824
v 0.691257 0.077223 -0.421823
v 0.693706 0.077223 -0.420808
v 0.694721 0.077223 -0.418359
v 0.691257 0.075039 -0.419997
v 0.692415 0.075039 -0.419517
v 0.692895 0.075039 -0.418359
v 0.691257 0.072711 -0.418359
vt 1.456081 23.082724
vt 1.429416 22.936876
vt 1.469689 23.082717
vt 1.41979 22.951305
vt 0.021795 -0.073869
vt 0.127033 -0.073869
vt 0.026999 -0.09273
vt 0.12183 -0.09273
vt 1.566916 22.936876
vt 0.040273 0.060409
vt 0.1375 0.20625
vt 0.1375 0
vt 1.557297 23.157565
vt 1.469684 23.10313
vt -0.026999 -0.09273
vt -0.12183 -0.09273
vt -0.021795 -0.073869
vt 1.442472 23.08279
vt 0.026999 -0.081927
vt 0.12183 -0.081927
vt 0.032166 -0.10081
vt 1.566916 23.143126
vt 0 0.20625
vt -0.127033 -0.073869
vt 1.547705 23.172045
vt -0.12183 -0.081927
vt -0.026999 -0.081927
vt -0.116663 -0.10081
vt 1.410137 22.965693
vt 0.116663 -0.10081
vt 1.469641 23.123542
vt -0.032166 -0.10081
vt 1.428864 23.082971
vt 0.032166 -0.089307
vt 0.116663 -0.089307
vt 0.037262 -0.108235
vt 1.538168 23.186607
vt -0.116663 -0.089307
vt -0.032166 -0.089307
vt -0.111567 -0.108235
vt 1.400429 22.979998
vt 0.111567 -0.108235
vt 1.46952 23.143954
vt -0.037262 -0.108235
vt 1.415258 23.083325
vt 0.037262 -0.096008
vt 0.111567 -0.096008
vt 0.042251 -0.115
vt 1.528714 23.201289
vt -0.111567 -0.096008
vt -0.037262 -0.096008
vt -0.106578 -0.115
vt 1.390641 22.99418
vt 0.106578 -0.115
vt 1.469284 23.164364
vt -0.042251 -0.115
vt 1.401655 23.083907
vt 0.042251 -0.102037
vt 0.106578 -0.102037
vt 0.047098 -0.121111
vt 1.51937 23.216129
vt -0.106578 -0.102037
vt -0.042251 -0.102037
vt -0.101731 -0.121111
vt 1.380748 23.008196
vt 0.101731 -0.121111
vt 1.468896 23.184768
vt -0.047098 -0.121111
vt 1.388059 23.08477
vt 0.047098 -0.107408
vt 0.101731 -0.107408
vt 0.05177 -0.12658
vt 1.510162 23.23116
vt -0.101731 -0.107408
vt -0.047098 -0.107408
vt -0.097059 -0.12658
vt 1.370727 23.022007
vt 0.097059 -0.12658
vt 1.468321 23.205163
vt -0.05177 -0.12658
vt 1.374474 23.085963
vt 0.05177 -0.11214
vt 0.097059 -0.11214
vt 0.056234 -0.131423
vt 1.501119 23.246413
vt -0.097059 -0.11214
vt -0.05177 -0.11214
vt -0.092595 -0.131423
vt 1.360559 23.035573
vt 0.092595 -0.131423
vt 1.467525 23.22554
vt -0.056234 -0.131423
vt 1.360905 23.087533
vt 0.056234 -0.116256
vt 0.092595 -0.116256
vt 0.060459 -0.13566
vt 1.492265 23.261914
vt -0.092595 -0.116256
vt -0.056234 -0.116256
vt -0.08837 -0.13566
vt 1.350224 23.048854
vt 0.08837 -0.13566
vt 1.466479 23.245893
vt -0.060459 -0.13566
vt 1.347362 23.089523
vt 0.060459 -0.119777
vt 0.08837 -0.119777
vt 0.064416 -0.139308
vt 1.483626 23.277686
vt -0.08837 -0.119777
vt -0.060459 -0.119777
vt -0.084413 -0.139308
vt 1.33971 23.061812
vt 0.084413 -0.139308
vt 1.465152 23.266208
vt -0.064416 -0.139308
vt 1.329002 23.074409
vt 0.084413 -0.122722
vt 0.080751 -0.142382
vt 0.064416 -0.122722
vt 1.463519 23.286473
vt -0.064416 -0.122722
vt -0.068078 -0.142382
vt -0.084413 -0.122722
vt 1.333852 23.091972
vt 0.068078 -0.142382
vt 1.475228 23.293748
vt -0.080751 -0.142382
vt -0.663005 23.828086
vt -0.661075 23.80402
vt -0.651858 23.819038
vt 0.080751 -0.125105
vt 0.077411 -0.144893
vt 0.068078 -0.125105
vt -0.675678 23.828086
vt -0.666345 23.808298
vt -0.068078 -0.125105
vt -0.071418 -0.144893
vt -0.080751 -0.125105
vt 0.071418 -0.144893
vt -0.672338 23.808298
vt -0.077411 -0.144893
vt -0.660934 23.804436
vt -0.669341 23.788386
vt 0.074414 -0.146847
vt 0.071418 -0.126936
vt 0.077411 -0.126936
vt -0.077411 -0.126936
vt -0.071418 -0.126936
vt -0.074414 -0.146847
vn 0.01694799752603352 -0.9990188012030421 -0.040916991857837634
vn -0.01694799752603352 0.9990188012030421 0.040916991857837634
vn 0 1 0
vn 0 -1 0
vn 0.04091699402417513 -0.9990188011295796 -0.016947996626234675
vn -0.04091699402417513 0.9990188011295796 0.016947996626234675
vn 0.05127902654086515 -0.9909814603695491 -0.12379905751199068
vn -0.05127902654086515 0.9909814603695491 0.12379905751199068
vn 0.12379906399226157 -0.9909814597024651 -0.051279023787623494
vn -0.12379906399226157 0.9909814597024651 0.051279023787623494
vn 0.08507696016183208 -0.9749744917666471 -0.20539389293255614
vn -0.08507696016183208 0.9749744917666471 0.20539389293255614
vn 0.2053939034416002 -0.974974489960106 -0.08507695549356256
vn -0.2053939034416002 0.974974489960106 0.08507695549356256
vn 0.11800299927156394 -0.9512709436930726 -0.2848839831373579
vn -0.11800299927156394 0.9512709436930726 0.2848839831373579
vn 0.2848839972258944 -0.9512709403021368 -0.11800299259461633
vn -0.2848839972258944 0.9512709403021368 0.11800299259461633
vn 0.14974694875403913 -0.920259636280896 -0.3615218571137964
vn -0.14974694875403913 0.920259636280896 0.3615218571137964
vn 0.3615218742057325 -0.9202596309981539 -0.14974693995510044
vn -0.3615218742057325 0.9202596309981539 0.14974693995510044
vn 0.18003499573187018 -0.8824249322955448 -0.4346419666518972
vn -0.18003499573187018 0.8824249322955448 0.4346419666518972
vn 0.4346419860894431 -0.8824249249737046 -0.18003498469290996
vn -0.4346419860894431 0.8824249249737046 0.18003498469290996
vn 0.20862999977009725 -0.838320954629906 -0.5036779727408499
vn -0.20862999977009725 0.838320954629906 0.5036779727408499
vn 0.5036779938326933 -0.8383209452888493 -0.20862998638422844
vn -0.5036779938326933 0.8383209452888493 0.20862998638422844
vn 0.23534213367889134 -0.7885444061012935 -0.568165292605792
vn -0.23534213367889134 0.7885444061012935 0.568165292605792
vn 0.5681653146732085 -0.7885443949209581 -0.23534211786468257
vn -0.5681653146732085 0.7885443949209581 0.23534211786468257
vn 0.2600179636044351 -0.7337128583996473 -0.6277388788517261
vn -0.2600179636044351 0.7337128583996473 0.6277388788517261
vn 0.627738901268658 -0.7337128457008165 -0.2600179453184489
vn -0.627738901268658 0.7337128457008165 0.2600179453184489
vn 0.2825459927732283 -0.674440946991935 -0.68212694638785
vn -0.2825459927732283 0.674440946991935 0.68212694638785
vn 0.6821269686126105 -0.6744409332086085 -0.28254597201884174
vn -0.6821269686126105 0.6744409332086085 0.28254597201884174
vn 0.30284810482499236 -0.6113251791869746 -0.7311392143059513
vn -0.30284810482499236 0.6113251791869746 0.7311392143059513
vn 0.7311392359032437 -0.6113251648336735 -0.3028480816579536
vn -0.7311392359032437 0.6113251648336735 0.3028480816579536
vn 0.3208730720687351 -0.5449310935013395 -0.7746551329182598
vn -0.3208730720687351 0.5449310935013395 0.7746551329182598
vn 0.7746551535715113 -0.5449310791385858 -0.32087304659935945
vn -0.7746551535715113 0.5449310791385858 0.32087304659935945
usemtl material_0_0
f 1/1/1 2/2/1 3/3/1
f 2/2/1 1/1/1 4/4/1
f 3/5/2 2/6/2 1/7/2
f 4/8/2 1/7/2 2/6/2
f 2/2/3 5/9/3 3/3/3
f 3/10/4 5/11/4 2/12/4
f 3/3/5 6/13/5 1/14/5
f 1/15/6 6/16/6 3/17/6
f 7/18/7 4/4/7 1/1/7
f 1/19/8 4/20/8 7/21/8
f 5/9/3 8/22/3 3/3/3
f 3/10/4 8/23/4 5/11/4
f 6/13/5 3/3/5 8/22/5
f 8/24/6 3/17/6 6/16/6
f 9/25/9 1/14/9 6/13/9
f 6/26/10 1/27/10 9/28/10
f 4/4/7 7/18/7 10/29/7
f 10/30/8 7/21/8 4/20/8
f 1/14/9 9/25/9 7/31/9
f 7/32/10 9/28/10 1/27/10
f 11/33/11 10/29/11 7/18/11
f 7/34/12 10/35/12 11/36/12
f 12/37/13 7/31/13 9/25/13
f 9/38/14 7/39/14 12/40/14
f 10/29/11 11/33/11 13/41/11
f 13/42/12 11/36/12 10/35/12
f 7/31/13 12/37/13 11/43/13
f 11/44/14 12/40/14 7/39/14
f 14/45/15 13/41/15 11/33/15
f 11/46/16 13/47/16 14/48/16
f 15/49/17 11/43/17 12/37/17
f 12/50/18 11/51/18 15/52/18
f 13/41/15 14/45/15 16/53/15
f 16/54/16 14/48/16 13/47/16
f 11/43/17 15/49/17 14/55/17
f 14/56/18 15/52/18 11/51/18
f 17/57/19 16/53/19 14/45/19
f 14/58/20 16/59/20 17/60/20
f 18/61/21 14/55/21 15/49/21
f 15/62/22 14/63/22 18/64/22
f 16/53/19 17/57/19 19/65/19
f 19/66/20 17/60/20 16/59/20
f 14/55/21 18/61/21 17/67/21
f 17/68/22 18/64/22 14/63/22
f 20/69/23 19/65/23 17/57/23
f 17/70/24 19/71/24 20/72/24
f 21/73/25 17/67/25 18/61/25
f 18/74/26 17/75/26 21/76/26
f 19/65/23 20/69/23 22/77/23
f 22/78/24 20/72/24 19/71/24
f 17/67/25 21/73/25 20/79/25
f 20/80/26 21/76/26 17/75/26
f 23/81/27 22/77/27 20/69/27
f 20/82/28 22/83/28 23/84/28
f 24/85/29 20/79/29 21/73/29
f 21/86/30 20/87/30 24/88/30
f 22/77/27 23/81/27 25/89/27
f 25/90/28 23/84/28 22/83/28
f 20/79/29 24/85/29 23/91/29
f 23/92/30 24/88/30 20/87/30
f 26/93/31 25/89/31 23/81/31
f 23/94/32 25/95/32 26/96/32
f 27/97/33 23/91/33 24/85/33
f 24/98/34 23/99/34 27/100/34
f 25/89/31 26/93/31 28/101/31
f 28/102/32 26/96/32 25/95/32
f 23/91/33 27/97/33 26/103/33
f 26/104/34 27/100/34 23/99/34
f 29/105/35 28/101/35 26/93/35
f 26/106/36 28/107/36 29/108/36
f 30/109/37 26/103/37 27/97/37
f 27/110/38 26/111/38 30/112/38
f 28/101/35 29/105/35 31/113/35
f 31/114/36 29/108/36 28/107/36
f 26/103/37 30/109/37 29/115/37
f 29/116/38 30/112/38 26/111/38
f 29/105/39 32/117/39 31/113/39
f 31/118/40 32/119/40 29/120/40
f 30/109/41 33/121/41 29/115/41
f 29/122/42 33/123/42 30/124/42
f 32/117/39 29/105/39 33/125/39
f 33/126/40 29/120/40 32/119/40
f 33/121/41 30/109/41 34/127/41
f 34/128/42 30/124/42 33/123/42
f 33/129/43 35/130/43 32/131/43
f 32/132/44 35/133/44 33/134/44
f 34/135/45 36/136/45 33/129/45
f 33/137/46 36/138/46 34/139/46
f 35/130/43 33/129/43 36/136/43
f 36/140/44 33/134/44 35/133/44
f 36/136/45 34/135/45 37/141/45
f 37/142/46 34/139/46 36/138/46
f 35/143/47 36/136/47 38/144/47
f 38/145/48 36/146/48 35/147/48
f 38/144/49 36/136/49 37/141/49
f 37/148/50 36/149/50 38/150/50
