# SSTK version 0.8.0
# 18
mtllib original-18.mtl
o mesh20/mesh20-geometry#mesh20-geometry
v -0.032496 0.043424 0.451814
v 0.011380 0.031501 0.451814
v -0.032496 0.031501 0.451814
v 0.011380 0.043424 0.451814
v -0.033542 0.031501 0.450768
v -0.032496 0.031501 0.464312
v 0.011380 0.043424 0.464312
v 0.011380 0.031501 0.464312
v 0.012426 0.031501 0.450768
v -0.032496 0.043424 0.464312
v -0.033542 0.043424 0.450768
v -0.033542 0.031501 0.465358
v 0.012426 0.031501 0.465358
v 0.012426 0.043424 0.450768
v -0.033542 0.043424 0.465358
v -0.053483 0.043424 0.448650
v -0.038583 0.043424 0.460028
v 0.012426 0.043424 0.465358
v 0.032367 0.043424 0.448650
v -0.041626 0.043424 0.452680
v -0.039011 0.043424 0.460728
v -0.038269 0.043424 0.459270
v 0.017325 0.043424 0.458063
v 0.023373 0.043424 0.452898
v -0.384481 0.043424 0.446852
v -0.042424 0.043424 0.452489
v -0.040868 0.043424 0.452995
v -0.039544 0.043424 0.461352
v -0.048408 0.043424 0.458472
v -0.038077 0.043424 0.458472
v -0.053483 0.043424 0.467477
v 0.017389 0.043424 0.457245
v 0.017389 0.043424 0.458881
v 0.024170 0.043424 0.453090
v 0.022554 0.043424 0.452834
v 0.363365 0.043424 0.446852
v -0.043242 0.043424 0.452425
v -0.048472 0.043424 0.457654
v -0.040168 0.043424 0.453423
v -0.040168 0.043424 0.461885
v -0.038013 0.043424 0.457654
v 0.032367 0.043424 0.467477
v -0.041626 0.043424 0.462628
v 0.017581 0.043424 0.456447
v 0.017581 0.043424 0.459679
v 0.024929 0.043424 0.453404
v 0.023373 0.043424 0.463229
v 0.021736 0.043424 0.452898
v 0.022554 0.042378 0.452834
v 0.363365 0.043424 0.468294
v 0.363365 -0.052833 0.446852
v -0.384481 0.043424 0.468294
v -0.044060 0.043424 0.452489
v -0.039544 0.043424 0.453956
v -0.040868 0.043424 0.462314
v -0.038077 0.043424 0.456836
v -0.038077 0.042378 0.458472
v -0.042424 0.043424 0.462820
v 0.017895 0.043424 0.455689
v 0.017895 0.043424 0.460437
v 0.025628 0.043424 0.453832
v 0.024929 0.043424 0.462723
v 0.024170 0.043424 0.463037
v 0.023373 0.042378 0.463229
v 0.020938 0.043424 0.453090
v 0.022554 0.043424 0.463293
v 0.023373 0.042378 0.452898
v 0.363365 -0.052833 0.468294
v -0.384481 -0.052833 0.446852
v -0.384481 -0.052833 0.468294
v -0.048408 0.043424 0.456836
v -0.044858 0.043424 0.452680
v -0.039011 0.043424 0.454580
v -0.038269 0.043424 0.456038
v -0.038013 0.042378 0.457654
v -0.048408 0.042378 0.458472
v -0.043242 0.043424 0.462884
v 0.018324 0.043424 0.454989
v 0.018324 0.043424 0.461137
v 0.026252 0.043424 0.454365
v 0.025628 0.043424 0.462294
v 0.020180 0.043424 0.453404
v 0.020938 0.043424 0.463037
v 0.021736 0.043424 0.463229
v 0.022554 0.042378 0.463293
v 0.027214 0.043424 0.460437
v -0.048216 0.043424 0.459270
v -0.048472 0.042378 0.457654
v -0.048216 0.043424 0.456038
v -0.045617 0.043424 0.452995
v -0.038583 0.043424 0.455280
v -0.044060 0.043424 0.462820
v 0.018856 0.043424 0.454365
v 0.018856 0.043424 0.461761
v 0.026785 0.043424 0.454989
v 0.019480 0.043424 0.453832
v 0.020180 0.043424 0.462723
v 0.026785 0.043424 0.461137
v 0.027528 0.043424 0.459679
v -0.047902 0.043424 0.460028
v -0.047902 0.043424 0.455280
v -0.046316 0.043424 0.453423
v -0.044858 0.043424 0.462628
v 0.019480 0.043424 0.462294
v 0.027214 0.043424 0.455689
v 0.026252 0.043424 0.461761
v 0.027720 0.043424 0.458881
v 0.027528 0.043424 0.456447
v -0.047473 0.043424 0.460728
v -0.047473 0.043424 0.454580
v -0.046940 0.043424 0.453956
v -0.045617 0.043424 0.462314
v 0.027784 0.043424 0.458063
v -0.046940 0.043424 0.461352
v -0.046316 0.043424 0.461885
v 0.027720 0.043424 0.457245
vt 2.105358 0.605084
vt 1.895612 0.605084
vt 2.105358 0.690584
vt 1.895612 0.690584
vt 2.105358 3.452583
vt 2.110358 3.445083
vt 1.895612 3.452583
vt 2.301722 0.605084
vt 2.301722 0.690584
vt 2.361469 0.605084
vt -2.301722 0.605084
vt -2.361469 0.605084
vt -2.301722 0.690584
vt 1.890612 3.445083
vt 2.105358 3.542203
vt 2.361469 0.690584
vt -2.361469 0.690584
vt 1.895612 3.542203
vt -2.110358 0.605084
vt -2.110358 0.690584
vt -1.890612 0.605084
vt 2.110358 3.549703
vt -2.105358 0.605084
vt -1.895612 0.690584
vt -2.105358 0.690584
vt -1.895612 0.605084
vt 1.890612 3.549703
vt -1.890612 0.690584
vt -2.296722 0.690584
vt -2.296722 0.605084
vt -2.366469 0.690584
vt -2.366469 0.605084
vt 2.296722 0.605084
vt 2.296722 0.690584
vt 2.366469 0.605084
vt 2.110358 0.605084
vt 1.890612 0.605084
vt 2.110358 0.690584
vt 2.366469 0.690584
vt 1.890612 0.690584
vt 2.205685 3.429893
vt 3.787985 3.417
vt 1.795285 3.429893
vt 0.212985 3.417
vt 2.205685 3.564893
vt 0.212985 3.57075
vt 0.212985 0.690584
vt 3.787985 0.690584
vt 0.212985 0.000359
vt 3.787985 3.57075
vt 1.795285 3.564893
vt -2.3805 0.690584
vt -2.278 0.690584
vt -2.3805 0.000359
vt 3.787985 0.000359
vt -2.278 0.000359
vt 2.3805 0.690584
vt 2.3805 0.000359
vt 2.278 0.690584
vt -0.212985 0.000359
vt -3.787985 0.000359
vt -0.212985 0.690584
vt -0.212985 3.417
vt -3.787985 3.417
vt -0.212985 3.57075
vt 2.278 0.000359
vt -3.787985 0.690584
vt -3.787985 3.57075
vt 25.035909 -11.515615
vt 25.095655 -11.515615
vt 25.035909 -11.912236
vt 25.095655 -11.912236
vt 25.030909 -11.921691
vt 25.020782 -12.10195
vt 25.030909 -11.506161
vt 25.100655 -11.921691
vt 25.075177 -11.967256
vt 25.020782 -11.325902
vt 25.04005 -11.994769
vt 25.078521 -11.971132
vt 25.071552 -11.964417
vt 25.100655 -11.506161
vt 25.065782 -11.461881
vt 25.04109 -11.407212
vt -2.486241 -0.006229
vt -3.044057 -0.002264
vt -2.601124 -0.006229
vt 25.039135 -12.001982
vt 25.041552 -11.987915
vt 25.081504 -11.97595
vt 25.045557 -11.38682
vt 25.090474 -11.407212
vt 25.043507 -11.393145
vt 25.067738 -11.962685
vt 25.042006 -11.399998
vt 25.110782 -12.10195
vt 25.061871 -11.461299
vt 25.069693 -11.461299
vt 25.040782 -11.414607
vt -2.043307 -0.002264
vt -2.601124 -0.047742
vt 25.038827 -12.009377
vt 25.058057 -11.459567
vt 25.090782 -11.414607
vt 25.054432 -11.456728
vt 25.043601 -11.98159
vt 25.084052 -11.98159
vt 25.048105 -11.381179
vt 25.063827 -11.962103
vt 25.110782 -11.325902
vt 25.087603 -11.994769
vt 25.073508 -11.459567
vt 25.04109 -11.422002
vt -6.356991 15.257856
vt -6.353068 15.257856
vt -6.356991 15.248401
vt -2.043307 -0.049543
vt -3.044057 -0.049543
vt 25.063827 -12.056651
vt 25.039135 -12.016773
vt 25.051088 -11.452852
vt 25.046149 -11.97595
vt 25.086102 -11.987915
vt 25.051088 -11.376361
vt 25.059916 -11.962685
vt -6.353068 15.248401
vt 25.04109 15.257856
vt 25.090474 15.257856
vt 25.04109 15.248401
vt -2.486241 -0.047742
vt 25.088519 -12.001982
vt 25.077132 -11.456728
vt 25.088057 -11.393145
vt 25.089559 -11.399998
vt 25.090474 15.248401
vt 25.042006 -11.429215
vt -30.040782 15.257856
vt -30.040782 15.248401
vt -30.090782 15.257856
vt -5 -0.049543
vt -5.112244 -0.002264
vt -5.112244 -0.049543
vt -5 -0.002264
vt -3.887007 -0.002264
vt -3.99925 -0.049543
vt -3.887007 -0.049543
vt 25.067738 -12.056069
vt 25.059916 -12.056069
vt 25.04005 -12.023986
vt 25.048105 -11.448034
vt 25.049132 -11.971132
vt 25.054432 -11.372485
vt 25.056101 -11.964417
vt 25.058057 -11.369647
vt 25.061871 -11.367915
vt 25.088827 -12.009377
vt 25.080477 -11.452852
vt 25.086008 -11.38682
vt 5.678641 15.257856
vt 5.682564 15.257856
vt 5.678641 15.248401
vt 25.043507 -11.436069
vt 25.089559 -11.429215
vt 25.090474 -11.422002
vt -30.090782 15.248401
vt 25.077132 -11.372485
vt -5 -0.293117
vt -3.99925 -0.002264
vt -3.99925 -0.293117
vt 25.071552 -12.054337
vt 5.682564 15.248401
vt 25.056101 -12.054337
vt 25.041552 -12.030839
vt 25.045557 -11.442394
vt 25.052477 -11.967256
vt 25.065782 -11.367333
vt 25.088519 -12.016773
vt 25.08346 -11.448034
vt 25.088057 -11.436069
vt 25.080477 -11.376361
vt 25.073508 -11.369647
vt 25.075177 -12.051499
vt 25.052477 -12.051499
vt 25.043601 -12.037164
vt 25.069693 -11.367915
vt 25.087603 -12.023986
vt 25.086008 -11.442394
vt 25.08346 -11.381179
vt 25.078521 -12.047623
vt 25.049132 -12.047623
vt 25.046149 -12.042805
vt 25.086102 -12.030839
vt 25.081504 -12.042805
vt 25.084052 -12.037164
vt -10.059904 2.093916
vt -8.887004 2.244884
vt -10.059904 2.244884
vt -8.887004 2.093916
vn 0 0 -1
vn 0 1 0
vn -1 0 0
vn 1 0 0
vn 0 0 1
vn -0.0784590266929423 0 0.9969173391662902
vn -0.9969173391662902 0 -0.0784590266929423
vn -0.0784590266929423 0 -0.9969173391662902
vn 0.9969173391662902 0 -0.0784590266929423
vn 0 -1 0
vn 0.0784590266929423 0 -0.9969173391662902
vn 0.9969173391662902 0 0.0784590266929423
vn 0.0784590266929423 0 0.9969173391662902
vn -0.9969173391662902 0 0.0784590266929423
usemtl material_0_0
f 1//1 2//1 3//1
f 2//1 1//1 4//1
f 2//2 5//2 3//2
f 6//3 1//3 3//3
f 1//2 7//2 4//2
f 4//4 8//4 2//4
f 5//2 2//2 9//2
f 3//2 5//2 6//2
f 1//3 6//3 10//3
f 7//2 1//2 10//2
f 8//4 4//4 7//4
f 8//2 9//2 2//2
f 9//5 11//5 5//5
f 6//2 5//2 12//2
f 8//2 13//2 9//2
f 11//5 9//5 14//5
f 15//4 5//4 11//4
f 5//4 15//4 12//4
f 12//2 8//2 6//2
f 13//2 8//2 12//2
f 13//3 14//3 9//3
f 14//2 16//2 11//2
f 17//2 15//2 11//2
f 15//1 13//1 12//1
f 14//3 13//3 18//3
f 14//2 19//2 16//2
f 11//2 16//2 20//2
f 21//2 15//2 17//2
f 17//2 11//2 22//2
f 13//1 15//1 18//1
f 23//2 14//2 18//2
f 24//2 19//2 14//2
f 20//2 16//2 26//2
f 11//2 20//2 27//2
f 28//2 15//2 21//2
f 22//2 11//2 30//2
f 31//2 18//2 15//2
f 32//2 14//2 23//2
f 18//2 33//2 23//2
f 34//2 19//2 24//2
f 24//2 14//2 35//2
f 26//2 16//2 37//2
f 11//2 27//2 39//2
f 40//2 15//2 28//2
f 30//2 11//2 41//2
f 42//2 18//2 31//2
f 31//2 15//2 43//2
f 44//2 14//2 32//2
f 18//2 45//2 33//2
f 46//2 19//2 34//2
f 35//2 14//2 48//2
f 49//6 24//6 35//6
f 31//2 38//2 16//2
f 37//2 16//2 53//2
f 11//2 39//2 54//2
f 55//2 15//2 40//2
f 11//2 56//2 41//2
f 41//7 57//7 30//7
f 18//2 42//2 47//2
f 43//2 15//2 55//2
f 31//2 43//2 58//2
f 59//2 14//2 44//2
f 18//2 60//2 45//2
f 61//2 19//2 46//2
f 48//2 14//2 65//2
f 24//6 49//6 67//6
f 31//2 29//2 38//2
f 71//2 16//2 38//2
f 53//2 16//2 72//2
f 11//2 54//2 73//2
f 11//2 74//2 56//2
f 57//7 41//7 75//7
f 47//2 42//2 63//2
f 18//2 47//2 66//2
f 31//2 58//2 77//2
f 78//2 14//2 59//2
f 18//2 79//2 60//2
f 80//2 19//2 61//2
f 64//8 66//8 47//8
f 65//2 14//2 82//2
f 86//2 42//2 19//2
f 31//2 87//2 29//2
f 29//9 88//9 38//9
f 89//2 16//2 71//2
f 72//2 16//2 90//2
f 11//2 73//2 91//2
f 11//2 91//2 74//2
f 88//9 29//9 76//9
f 63//2 42//2 62//2
f 18//2 66//2 84//2
f 31//2 77//2 92//2
f 93//2 14//2 78//2
f 18//2 94//2 79//2
f 95//2 19//2 80//2
f 62//2 42//2 81//2
f 66//8 64//8 85//8
f 82//2 14//2 96//2
f 98//2 42//2 86//2
f 86//2 19//2 99//2
f 31//2 100//2 87//2
f 101//2 16//2 89//2
f 90//2 16//2 102//2
f 18//2 84//2 83//2
f 31//2 92//2 103//2
f 96//2 14//2 93//2
f 18//2 104//2 94//2
f 105//2 19//2 95//2
f 81//2 42//2 106//2
f 18//2 83//2 97//2
f 106//2 42//2 98//2
f 99//2 19//2 107//2
f 31//2 109//2 100//2
f 110//2 16//2 101//2
f 102//2 16//2 111//2
f 31//2 103//2 112//2
f 18//2 97//2 104//2
f 108//2 19//2 105//2
f 107//2 19//2 113//2
f 31//2 114//2 109//2
f 111//2 16//2 110//2
f 31//2 112//2 115//2
f 116//2 19//2 108//2
f 19//2 116//2 113//2
f 31//2 115//2 114//2
usemtl material_1_0
f 3/1/5 2/2/5 1/3/5
f 4/4/5 1/3/5 2/2/5
f 3/5/10 5/6/10 2/7/10
f 3/8/4 1/9/4 6/10/4
f 2/11/3 8/12/3 4/13/3
f 9/14/10 2/7/10 5/6/10
f 6/15/10 5/6/10 3/5/10
f 10/16/4 6/10/4 1/9/4
f 7/17/3 4/13/3 8/12/3
f 2/7/10 9/14/10 8/18/10
f 5/19/1 11/20/1 9/21/1
f 12/22/10 5/6/10 6/15/10
f 6/23/5 7/24/5 10/25/5
f 10/25/1 7/24/1 6/23/1
f 7/24/5 6/23/5 8/26/5
f 8/26/1 6/23/1 7/24/1
f 9/14/10 13/27/10 8/18/10
f 14/28/1 9/21/1 11/20/1
f 11/29/3 5/30/3 15/31/3
f 12/32/3 15/31/3 5/30/3
f 6/15/10 8/18/10 12/22/10
f 12/22/10 8/18/10 13/27/10
f 9/33/4 14/34/4 13/35/4
f 12/36/5 13/37/5 15/38/5
f 18/39/4 13/35/4 14/34/4
f 18/40/5 15/38/5 13/37/5
f 16/41/10 25/42/10 19/43/10
f 25/42/10 36/44/10 19/43/10
f 31/45/10 25/42/10 16/41/10
f 50/46/10 19/43/10 36/44/10
f 36/47/5 25/48/5 51/49/5
f 52/50/10 25/42/10 31/45/10
f 31/45/10 42/51/10 52/50/10
f 42/51/10 19/43/10 50/46/10
f 50/52/3 36/53/3 68/54/3
f 69/55/5 51/49/5 25/48/5
f 51/56/3 68/54/3 36/53/3
f 52/57/4 70/58/4 25/59/4
f 50/46/10 52/50/10 42/51/10
f 68/60/1 70/61/1 50/62/1
f 51/63/2 69/64/2 68/65/2
f 69/66/4 25/59/4 70/58/4
f 52/67/1 50/62/1 70/61/1
f 70/68/2 68/65/2 69/64/2
usemtl material_2_0
f 4/69/10 7/70/10 1/71/10
f 10/72/10 1/71/10 7/70/10
f 11/73/10 16/74/10 14/75/10
f 11/73/10 15/76/10 17/77/10
f 16/74/10 19/78/10 14/75/10
f 20/79/10 16/74/10 11/73/10
f 17/77/10 15/76/10 21/80/10
f 22/81/10 11/73/10 17/77/10
f 18/82/10 14/75/10 23/83/10
f 14/75/10 19/78/10 24/84/10
f 19/85/2 25/86/2 16/87/2
f 26/88/10 16/74/10 20/79/10
f 27/89/10 20/79/10 11/73/10
f 21/80/10 15/76/10 28/90/10
f 21/91/10 29/92/10 17/93/10
f 30/94/10 11/73/10 22/81/10
f 17/93/10 29/92/10 22/95/10
f 15/76/10 18/82/10 31/96/10
f 23/83/10 14/75/10 32/97/10
f 23/83/10 33/98/10 18/82/10
f 24/84/10 19/78/10 34/95/10
f 35/99/10 14/75/10 24/84/10
f 19/85/2 36/100/2 25/86/2
f 16/87/2 25/86/2 31/101/2
f 37/102/10 16/74/10 26/88/10
f 26/97/10 20/103/10 38/104/10
f 20/103/10 27/105/10 38/104/10
f 39/106/10 27/89/10 11/73/10
f 28/90/10 15/76/10 40/107/10
f 28/108/10 29/92/10 21/91/10
f 41/109/10 11/73/10 30/94/10
f 30/84/10 22/95/10 29/92/10
f 31/96/10 18/82/10 42/110/10
f 43/111/10 15/76/10 31/96/10
f 32/97/10 14/75/10 44/103/10
f 23/83/10 32/97/10 33/98/10
f 33/98/10 45/112/10 18/82/10
f 34/95/10 19/78/10 46/93/10
f 24/84/10 34/95/10 47/92/10
f 48/113/10 14/75/10 35/99/10
f 35/114/11 24/115/11 49/116/11
f 36/100/2 19/85/2 50/117/2
f 31/101/2 25/86/2 52/118/2
f 16/74/10 38/119/10 31/96/10
f 53/120/10 16/74/10 37/102/10
f 37/83/10 26/97/10 38/104/10
f 27/105/10 39/121/10 38/104/10
f 54/122/10 39/106/10 11/73/10
f 40/107/10 15/76/10 55/123/10
f 40/124/10 29/92/10 28/108/10
f 41/109/10 56/125/10 11/73/10
f 30/115/12 57/126/12 41/114/12
f 30/127/5 29/128/5 57/129/5
f 47/92/10 42/110/10 18/82/10
f 52/118/2 42/130/2 31/101/2
f 55/123/10 15/76/10 43/111/10
f 58/131/10 43/111/10 31/96/10
f 44/103/10 14/75/10 59/105/10
f 32/97/10 44/103/10 33/98/10
f 45/112/10 60/132/10 18/82/10
f 33/98/10 44/103/10 45/112/10
f 46/93/10 19/78/10 61/91/10
f 34/95/10 46/93/10 62/133/10
f 47/92/10 34/95/10 63/134/10
f 47/128/4 64/135/4 24/127/4
f 65/136/10 14/75/10 48/113/10
f 35/99/10 66/104/10 48/113/10
f 67/126/11 49/116/11 24/115/11
f 35/137/3 49/138/3 66/139/3
f 50/117/2 19/85/2 42/130/2
f 68/140/4 36/141/4 50/142/4
f 36/141/4 68/140/4 51/143/4
f 25/144/3 70/145/3 52/146/3
f 38/119/10 29/147/10 31/96/10
f 38/119/10 16/74/10 71/148/10
f 72/149/10 16/74/10 53/120/10
f 53/98/10 37/83/10 38/104/10
f 39/121/10 54/150/10 38/104/10
f 73/151/10 54/122/10 11/73/10
f 55/152/10 29/92/10 40/124/10
f 56/125/10 74/153/10 11/73/10
f 41/99/10 38/104/10 56/113/10
f 75/116/12 41/114/12 57/126/12
f 76/135/5 57/129/5 29/128/5
f 63/134/10 42/110/10 47/92/10
f 66/104/10 47/92/10 18/82/10
f 42/130/2 52/118/2 50/117/2
f 43/154/10 29/92/10 55/152/10
f 58/155/10 29/92/10 43/154/10
f 77/156/10 58/131/10 31/96/10
f 59/105/10 14/75/10 78/121/10
f 44/103/10 59/105/10 45/112/10
f 60/132/10 79/157/10 18/82/10
f 45/112/10 59/105/10 60/132/10
f 61/91/10 19/78/10 80/108/10
f 46/93/10 61/91/10 81/158/10
f 62/133/10 46/93/10 81/158/10
f 63/134/10 34/95/10 62/133/10
f 67/129/4 24/127/4 64/135/4
f 47/159/13 66/160/13 64/161/13
f 82/162/10 14/75/10 65/136/10
f 65/136/10 48/113/10 83/163/10
f 84/164/10 48/113/10 66/104/10
f 49/99/10 67/84/10 85/104/10
f 85/165/3 66/139/3 49/138/3
f 19/78/10 42/110/10 86/166/10
f 50/167/5 70/145/5 68/140/5
f 68/140/10 69/168/10 51/143/10
f 70/145/3 25/144/3 69/168/3
f 70/145/5 50/167/5 52/169/5
f 29/147/10 87/170/10 31/96/10
f 38/160/14 88/171/14 29/159/14
f 71/148/10 16/74/10 89/172/10
f 71/164/10 89/163/10 38/104/10
f 90/173/10 16/74/10 72/149/10
f 72/112/10 53/98/10 38/104/10
f 54/150/10 73/174/10 38/104/10
f 91/175/10 73/151/10 11/73/10
f 74/153/10 91/175/10 11/73/10
f 74/136/10 56/113/10 38/104/10
f 41/137/1 75/138/1 38/139/1
f 75/99/10 57/84/10 88/104/10
f 76/92/10 88/104/10 57/84/10
f 76/161/14 29/159/14 88/171/14
f 62/133/10 42/110/10 63/134/10
f 84/164/10 66/104/10 18/82/10
f 77/176/10 29/92/10 58/155/10
f 92/177/10 77/156/10 31/96/10
f 78/121/10 14/75/10 93/150/10
f 59/105/10 78/121/10 79/157/10
f 79/157/10 94/178/10 18/82/10
f 60/132/10 59/105/10 79/157/10
f 80/108/10 19/78/10 95/124/10
f 61/91/10 80/108/10 81/158/10
f 81/158/10 42/110/10 62/133/10
f 64/92/10 85/104/10 67/84/10
f 85/171/13 64/161/13 66/160/13
f 96/174/10 14/75/10 82/162/10
f 82/162/10 65/136/10 97/179/10
f 83/163/10 48/113/10 84/164/10
f 97/179/10 65/136/10 83/163/10
f 86/166/10 42/110/10 98/180/10
f 99/181/10 19/78/10 86/166/10
f 69/168/10 68/140/10 70/145/10
f 87/170/10 100/182/10 31/96/10
f 87/134/10 29/92/10 100/133/10
f 88/165/1 38/139/1 75/138/1
f 89/172/10 16/74/10 101/183/10
f 89/163/10 101/179/10 38/104/10
f 102/184/10 16/74/10 90/173/10
f 90/132/10 72/112/10 38/104/10
f 73/174/10 91/162/10 38/104/10
f 91/162/10 74/136/10 38/104/10
f 83/163/10 84/164/10 18/82/10
f 92/185/10 29/92/10 77/176/10
f 103/186/10 92/177/10 31/96/10
f 93/150/10 14/75/10 96/174/10
f 78/121/10 93/150/10 79/157/10
f 94/178/10 104/187/10 18/82/10
f 79/157/10 93/150/10 94/178/10
f 95/124/10 19/78/10 105/152/10
f 80/108/10 95/124/10 98/180/10
f 81/158/10 80/108/10 106/188/10
f 106/188/10 42/110/10 81/158/10
f 96/174/10 82/162/10 97/179/10
f 97/179/10 83/163/10 18/82/10
f 98/180/10 42/110/10 106/188/10
f 98/180/10 105/152/10 86/166/10
f 107/185/10 19/78/10 99/181/10
f 86/166/10 108/154/10 99/181/10
f 100/182/10 109/189/10 31/96/10
f 100/133/10 29/92/10 109/158/10
f 101/183/10 16/74/10 110/190/10
f 101/179/10 110/187/10 38/104/10
f 111/191/10 16/74/10 102/184/10
f 102/157/10 90/132/10 38/104/10
f 103/181/10 29/92/10 92/185/10
f 112/192/10 103/186/10 31/96/10
f 93/150/10 96/174/10 104/187/10
f 104/187/10 97/179/10 18/82/10
f 94/178/10 93/150/10 104/187/10
f 105/152/10 19/78/10 108/154/10
f 95/124/10 105/152/10 98/180/10
f 106/188/10 80/108/10 98/180/10
f 104/187/10 96/174/10 97/179/10
f 105/152/10 108/154/10 86/166/10
f 113/176/10 19/78/10 107/185/10
f 99/181/10 108/154/10 107/185/10
f 109/189/10 114/193/10 31/96/10
f 109/158/10 29/92/10 114/188/10
f 110/190/10 16/74/10 111/191/10
f 110/187/10 111/178/10 38/104/10
f 111/178/10 102/157/10 38/104/10
f 112/166/10 29/92/10 103/181/10
f 115/194/10 112/192/10 31/96/10
f 108/154/10 19/78/10 116/155/10
f 113/176/10 116/155/10 19/78/10
f 113/176/10 107/185/10 116/155/10
f 108/154/10 116/155/10 107/185/10
f 114/193/10 115/194/10 31/96/10
f 114/188/10 29/92/10 115/180/10
f 115/180/10 29/92/10 112/166/10
usemtl material_3_0
f 17//2 29//2 21//2
f 22//2 29//2 17//2
f 38//2 20//2 26//2
f 38//2 27//2 20//2
f 21//2 29//2 28//2
f 29//2 22//2 30//2
f 33//2 32//2 23//2
f 47//2 34//2 24//2
f 38//2 26//2 37//2
f 38//2 39//2 27//2
f 28//2 29//2 40//2
f 57//1 29//1 30//1
f 33//2 44//2 32//2
f 45//2 44//2 33//2
f 62//2 46//2 34//2
f 63//2 34//2 47//2
f 24//3 64//3 47//3
f 48//2 66//2 35//2
f 66//4 49//4 35//4
f 38//2 37//2 53//2
f 38//2 54//2 39//2
f 40//2 29//2 55//2
f 56//2 38//2 41//2
f 29//1 57//1 76//1
f 55//2 29//2 43//2
f 43//2 29//2 58//2
f 45//2 59//2 44//2
f 60//2 59//2 45//2
f 81//2 61//2 46//2
f 81//2 46//2 62//2
f 62//2 34//2 63//2
f 64//3 24//3 67//3
f 83//2 48//2 65//2
f 66//2 48//2 84//2
f 85//2 67//2 49//2
f 49//4 66//4 85//4
f 38//2 89//2 71//2
f 38//2 53//2 72//2
f 38//2 73//2 54//2
f 38//2 56//2 74//2
f 38//5 75//5 41//5
f 88//2 57//2 75//2
f 57//2 88//2 76//2
f 58//2 29//2 77//2
f 79//2 78//2 59//2
f 79//2 59//2 60//2
f 81//2 80//2 61//2
f 67//2 85//2 64//2
f 97//2 65//2 82//2
f 84//2 48//2 83//2
f 83//2 65//2 97//2
f 100//2 29//2 87//2
f 75//5 38//5 88//5
f 38//2 101//2 89//2
f 38//2 72//2 90//2
f 38//2 91//2 73//2
f 38//2 74//2 91//2
f 77//2 29//2 92//2
f 79//2 93//2 78//2
f 94//2 93//2 79//2
f 98//2 95//2 80//2
f 106//2 80//2 81//2
f 97//2 82//2 96//2
f 86//2 105//2 98//2
f 99//2 108//2 86//2
f 109//2 29//2 100//2
f 38//2 110//2 101//2
f 38//2 90//2 102//2
f 92//2 29//2 103//2
f 104//2 96//2 93//2
f 104//2 93//2 94//2
f 98//2 105//2 95//2
f 98//2 80//2 106//2
f 97//2 96//2 104//2
f 86//2 108//2 105//2
f 107//2 108//2 99//2
f 114//2 29//2 109//2
f 38//2 111//2 110//2
f 38//2 102//2 111//2
f 103//2 29//2 112//2
f 116//2 107//2 113//2
f 107//2 116//2 108//2
f 115//2 29//2 114//2
f 112//2 29//2 115//2
usemtl material_4_0
f 51/195/1 25/196/1 36/197/1
f 25/196/1 51/195/1 69/198/1
