# SSTK version 0.8.0
# 50
mtllib original-50.mtl
o sbalzo_tavolo1/sbalzo_tavolo/mesh40/mesh40-geometry#mesh40-geometry
v 0.691257 0.088400 0.346705
v 0.720020 0.088400 -0.418359
v 0.720020 0.088400 0.346705
v 0.691257 0.088400 -0.418359
v 0.717176 0.088283 0.346705
v 0.691257 0.072711 -0.418359
v 0.717176 0.088283 -0.418359
v 0.714351 0.087930 0.346705
v 0.691257 0.072711 0.346705
v 0.692895 0.075039 -0.418359
v 0.714351 0.087930 -0.418359
v 0.711565 0.087344 0.346705
v 0.692895 0.075039 0.346705
v 0.694721 0.077223 -0.418359
v 0.711565 0.087344 -0.418359
v 0.708838 0.086527 0.346705
v 0.694721 0.077223 0.346705
v 0.696722 0.079247 -0.418359
v 0.708838 0.086527 -0.418359
v 0.706189 0.085486 0.346705
v 0.696722 0.079247 0.346705
v 0.698885 0.081098 -0.418359
v 0.706189 0.085486 -0.418359
v 0.703635 0.084228 0.346705
v 0.698885 0.081098 0.346705
v 0.701195 0.082762 -0.418359
v 0.703635 0.084228 -0.418359
v 0.701195 0.082762 0.346705
vt -0.1375 5.48596
vt 0 0
vt 0 5.48596
vt -0.1375 0
vt 1.579152 20.694291
vt 1.592765 15.208331
vt 1.592765 20.694291
vt -3.657307 0.004604
vt 0 0.004604
vt -3.657307 -0.015809
vt -0.1375 0.1125
vt -0.013597 0.111665
vt 0 0.1125
vt -3.657307 0.1125
vt 0.013597 0.111665
vt 0.1375 0.1125
vt 1.579152 15.208331
vt 0 -0.015809
vt -0.0271 0.109134
vt -3.657307 0
vt 0.12967 0.016696
vt 0.1375 0
vt 0.0271 0.109134
vt 1.56554 20.694291
vt -3.657307 -0.006396
vt 0 -0.006396
vt -3.657307 -0.026809
vt -0.040417 0.104926
vt -0.12967 0.016696
vt 1.429416 15.208331
vt 1.443029 20.694291
vt 1.429416 20.694291
vt -3.657307 -0.118667
vt -3.657307 -0.098254
vt 0 -0.118667
vt 0.120941 0.032355
vt 1.443029 15.208331
vt 0 -0.098254
vt 0.040417 0.104926
vt 1.56554 15.208331
vt 0 -0.026809
vt -0.053453 0.09907
vt 1.551927 20.694291
vt -3.657307 -0.017281
vt 0 -0.017281
vt -3.657307 -0.037693
vt -0.120941 0.032355
vt 0.111373 0.046871
vt 1.456641 15.208331
vt 0 -0.111957
vt -3.657307 -0.111957
vt 0 -0.091544
vt 0.053453 0.09907
vt 1.551927 15.208331
vt 0 -0.037693
vt -0.066119 0.091606
vt 1.538315 20.694291
vt -3.657307 -0.027974
vt 0 -0.027974
vt -3.657307 -0.048387
vt 1.456641 20.694291
vt -3.657307 -0.091544
vt -0.111373 0.046871
vt 0.101033 0.060141
vt 1.470253 20.694291
vt 1.470253 15.208331
vt 0 -0.084128
vt 0 -0.104541
vt -3.657307 -0.084128
vt 0.066119 0.091606
vt 1.538315 15.208331
vt 0 -0.048387
vt -0.078327 0.082587
vt 1.524703 20.694291
vt -3.657307 -0.038403
vt 0 -0.038403
vt -3.657307 -0.058816
vt -3.657307 -0.104541
vt -0.101033 0.060141
vt 0.089992 0.072074
vt 1.483866 15.208331
vt 0 -0.096469
vt -3.657307 -0.096469
vt 0 -0.076057
vt 0.078327 0.082587
vt 1.524703 15.208331
vt 0 -0.058816
vt -0.089992 0.072074
vt 1.51109 20.694291
vt -3.657307 -0.048494
vt 0 -0.048494
vt -3.657307 -0.068907
vt 1.483866 20.694291
vt -3.657307 -0.076057
vt 1.497478 15.208331
vt 0 -0.087799
vt -3.657307 -0.087799
vt 0 -0.067387
vt 1.51109 15.208331
vt 0 -0.068907
vt 1.497478 20.694291
vt -3.657307 -0.058178
vt 0 -0.058178
vt -3.657307 -0.07859
vt -3.657307 -0.067387
vt 0 -0.07859
vn 0 -1 0
vn 0 1 0
vn 0.08251399657643324 -0.9965899058133111 0
vn 0.04092301456216701 -0.9991623025710812 0
vn -0.04092301456216701 0.9991623025710812 0
vn -0.08251399657643324 0.9965899058133111 0
vn 0 0 1
vn 0 0 -1
vn 1 0 0
vn -1 0 0
vn 0.16519499628284828 -0.9862609255177404 0
vn -0.16519499628284828 0.9862609255177404 0
vn 0.8179043502960284 -0.5753542159112347 0
vn 0.7932239921636871 -0.6089299616999502 0
vn -0.8179043502960284 0.5753542159112347 0
vn -0.7932239921636871 0.6089299616999502 0
vn 0.2467291358348334 -0.9690844821429122 0
vn -0.2467291358348334 0.9690844821429122 0
vn 0.7397761325016874 -0.6728530848415916 0
vn -0.7397761325016874 0.6728530848415916 0
vn 0.3265499934411261 -0.9451799309039525 0
vn -0.3265499934411261 0.9451799309039525 0
vn 0.6811919267528591 -0.7321048824633856 0
vn -0.6811919267528591 0.7321048824633856 0
vn 0.4041040350632373 -0.9147130308712179 0
vn -0.4041040350632373 0.9147130308712179 0
vn 0.6178791162800447 -0.7862731062836825 0
vn -0.6178791162800447 0.7862731062836825 0
vn 0.47885186999231977 -0.8778957151079271 0
vn -0.47885186999231977 0.8778957151079271 0
vn 0.5502759415230747 -0.8349828669984155 0
vn -0.5502759415230747 0.8349828669984155 0
usemtl material_0_0
f 1/1/1 2/2/1 3/3/1
f 2/2/1 1/1/1 4/4/1
f 3/3/2 2/2/2 1/1/2
f 4/4/2 1/1/2 2/2/2
f 5/5/3 2/6/4 3/7/4
f 3/8/5 2/9/5 5/10/6
f 1/11/7 5/12/7 3/13/7
f 3/13/8 5/12/8 1/11/8
f 1/14/9 6/2/9 4/13/9
f 4/13/10 6/2/10 1/14/10
f 7/15/8 4/16/8 2/13/8
f 2/13/7 4/16/7 7/15/7
f 2/6/4 5/5/3 7/17/3
f 7/18/6 5/10/6 2/9/5
f 1/11/7 8/19/7 5/12/7
f 5/12/8 8/19/8 1/11/8
f 6/2/9 1/14/9 9/20/9
f 9/20/10 1/14/10 6/2/10
f 4/16/8 10/21/8 6/22/8
f 6/22/7 10/21/7 4/16/7
f 11/23/8 4/16/8 7/15/8
f 7/15/7 4/16/7 11/23/7
f 8/24/11 7/17/3 5/5/3
f 5/25/6 7/26/6 8/27/12
f 1/11/7 12/28/7 8/19/7
f 8/19/8 12/28/8 1/11/8
f 13/29/7 1/11/7 9/4/7
f 9/4/8 1/11/8 13/29/8
f 6/30/13 13/31/14 9/32/13
f 9/33/15 13/34/16 6/35/15
f 10/21/8 4/16/8 14/36/8
f 14/36/7 4/16/7 10/21/7
f 13/31/14 6/30/13 10/37/14
f 10/38/16 6/35/15 13/34/16
f 15/39/8 4/16/8 11/23/8
f 11/23/7 4/16/7 15/39/7
f 7/17/3 8/24/11 11/40/11
f 11/41/12 8/27/12 7/26/6
f 1/11/7 16/42/7 12/28/7
f 12/28/8 16/42/8 1/11/8
f 12/43/17 11/40/11 8/24/11
f 8/44/12 11/45/12 12/46/18
f 1/11/7 13/29/7 17/47/7
f 17/47/8 13/29/8 1/11/8
f 14/36/8 4/16/8 18/48/8
f 18/48/7 4/16/7 14/36/7
f 14/49/19 13/31/14 10/37/14
f 10/50/16 13/51/16 14/52/20
f 19/53/8 4/16/8 15/39/8
f 15/39/7 4/16/7 19/53/7
f 11/40/11 12/43/17 15/54/17
f 15/55/18 12/46/18 11/45/12
f 1/11/7 20/56/7 16/42/7
f 16/42/8 20/56/8 1/11/8
f 16/57/21 15/54/17 12/43/17
f 12/58/18 15/59/18 16/60/22
f 13/31/14 14/49/19 17/61/19
f 17/62/20 14/52/20 13/51/16
f 1/11/7 17/47/7 21/63/7
f 21/63/8 17/47/8 1/11/8
f 18/48/8 4/16/8 22/64/8
f 22/64/7 4/16/7 18/48/7
f 21/65/23 14/49/19 18/66/23
f 18/67/24 14/68/20 21/69/24
f 23/70/8 4/16/8 19/53/8
f 19/53/7 4/16/7 23/70/7
f 15/54/17 16/57/21 19/71/21
f 19/72/22 16/60/22 15/59/18
f 1/11/7 24/73/7 20/56/7
f 20/56/8 24/73/8 1/11/8
f 20/74/25 19/71/21 16/57/21
f 16/75/22 19/76/22 20/77/26
f 14/49/19 21/65/23 17/61/19
f 17/78/20 21/69/24 14/68/20
f 1/11/7 21/63/7 25/79/7
f 25/79/8 21/63/8 1/11/8
f 22/64/8 4/16/8 26/80/8
f 26/80/7 4/16/7 22/64/7
f 22/81/27 21/65/23 18/66/23
f 18/82/24 21/83/24 22/84/28
f 27/85/8 4/16/8 23/70/8
f 23/70/7 4/16/7 27/85/7
f 19/71/21 20/74/25 23/86/25
f 23/87/26 20/77/26 19/76/22
f 1/11/7 28/88/7 24/73/7
f 24/73/8 28/88/8 1/11/8
f 24/89/29 23/86/25 20/74/25
f 20/90/26 23/91/26 24/92/30
f 21/65/23 22/81/27 25/93/27
f 25/94/28 22/84/28 21/83/24
f 1/11/7 25/79/7 28/88/7
f 28/88/8 25/79/8 1/11/8
f 26/80/8 4/16/8 27/85/8
f 27/85/7 4/16/7 26/80/7
f 26/95/31 25/93/27 22/81/27
f 22/96/28 25/97/28 26/98/32
f 23/86/25 24/89/29 27/99/29
f 27/100/30 24/92/30 23/91/26
f 28/101/31 27/99/29 24/89/29
f 24/102/30 27/103/30 28/104/32
f 25/93/27 26/95/31 28/101/31
f 28/105/32 26/98/32 25/97/28
f 27/99/29 28/101/31 26/95/31
f 26/106/32 28/104/32 27/103/30
