# SSTK version 0.8.0
# 46
mtllib original-46.mtl
o Incasso_cassetto_2_2/Incasso_cassetto_2/mesh36/mesh36-geometry#mesh36-geometry
v -0.654998 -0.083532 0.244050
v -0.655521 -0.083009 0.244050
v -0.654998 0.057888 0.244050
v -0.687945 -0.083532 0.244050
v -0.655521 0.057365 0.244050
v -0.654998 -0.083532 -0.315704
v -0.687945 -0.083532 -0.315704
v -0.687422 -0.083009 0.244050
v -0.687945 0.057888 0.244050
v -0.655521 -0.083009 0.244573
v -0.654998 0.057888 -0.315704
v -0.687945 -0.068810 -0.300983
v -0.687422 0.057365 0.244050
v -0.687422 -0.083009 0.244573
v -0.687945 0.057888 -0.315704
v -0.655521 0.057365 0.244573
v -0.655521 0.057365 -0.315704
v -0.655521 -0.083009 -0.315704
v -0.687945 -0.068810 0.229329
v -0.687422 0.057365 0.244573
v -0.687945 0.043166 0.229329
v -0.687422 -0.083009 -0.315704
v -0.687945 0.043166 -0.300983
v -0.684807 -0.063581 0.224099
v -0.687422 0.057365 -0.315704
v -0.655521 0.057365 -0.316227
v -0.687422 -0.083009 -0.316227
v -0.684807 -0.063581 -0.295753
v -0.684807 0.037937 0.224099
v -0.687422 0.057365 -0.316227
v -0.655521 -0.083009 -0.316227
v -0.684807 0.037937 -0.295753
v -0.687945 -0.058351 0.218869
v -0.687945 -0.058351 -0.290523
v -0.687945 0.032707 0.218869
v -0.687945 0.032707 -0.290523
vt 8.002547 15.016703
vt 8.005047 15.020453
vt 8.002547 16.03077
vt 8.160047 15.016703
vt 0 1.724989
vt 0.0025 0.714671
vt 0 0.710921
vt 0.1575 0.710921
vt 8.005047 16.02702
vt 0.0025 1.721239
vt -0.558869 15.016703
vt -3.234719 16.03077
vt -3.234719 15.016703
vt 2.97783 0.710921
vt 2.97783 1.724989
vt 5.65368 0.710921
vt 3.415201 19.475264
vt 6.091051 19.239014
vt 6.091051 19.475264
vt -2.97783 0.23625
vt -2.97783 0
vt -5.65368 0.23625
vt 8.157547 15.020453
vt 0.155 0.714671
vt 8.160047 16.03077
vt 0.1575 1.724989
vt -5.143715 16.02702
vt -5.146215 15.020453
vt -5.143715 15.020453
vt 2.97783 0.714671
vt 2.97533 0.714671
vt 2.97783 1.721239
vt -0.558869 16.03077
vt 5.65368 1.724989
vt 3.415201 19.239014
vt -5.65368 0
vt 3.485577 19.580828
vt -2.97783 0.710921
vt -5.65368 0.710921
vt -5.583304 0.816485
vt 8.157547 16.02702
vt 0.155 1.721239
vt -5.146215 15.016703
vt -5.298715 15.020453
vt -5.298715 15.016703
vt -2.97783 0.2325
vt -2.97533 0.2325
vt -2.97783 0.00375
vt -0.558869 16.26702
vt -3.234719 16.26702
vt 2.97783 0.23625
vt 5.65368 0.23625
vt 2.97783 0
vt -5.146215 16.02702
vt 2.97533 1.721239
vt -2.97533 0.00375
vt -0.556369 16.02702
vt 5.65368 0
vt -0.556369 15.020453
vt -0.401369 15.016703
vt 3.415201 20.489332
vt -5.65368 1.724989
vt 6.020675 19.580828
vt -3.048206 0.816485
vt -5.301215 15.020453
vt -5.298715 16.02702
vt -5.301215 16.02702
vt -2.97783 1.721239
vt -2.97533 1.721239
vt -2.97783 0.714671
vt -2.97533 0.714671
vt 8.157547 16.02327
vt 6.020675 20.383768
vt 6.091051 20.489332
vt -2.97783 1.724989
vt -3.048206 1.619425
vt 8.005047 16.02327
vt -0.0025 0.714671
vt -0.155 0.714671
vt -0.0025 1.721239
vt -0.401369 16.03077
vt -0.403869 15.020453
vt 3.485577 20.383768
vt -5.583304 1.619425
vt 5.995675 19.62456
vt -3.048206 0.578581
vt -5.583304 0.578581
vt -3.073206 0.622313
vt -0.155 1.721239
vt -0.403869 16.02702
vt -0.553869 16.02702
vt 5.65368 1.721239
vt 5.65618 1.721239
vt 5.65368 0.714671
vt -0.403869 15.024203
vt -5.65368 0.2325
vt -5.65368 0.00375
vt -5.65618 0.2325
vt 3.514732 19.618328
vt -4.868677 0.816485
vt -4.868677 1.619425
vt -4.839522 0.853985
vt 3.510577 19.62456
vt -5.558304 0.622313
vt 5.991521 19.618328
vt -2.532782 0.816485
vt -2.561937 0.853985
vt -2.532782 1.619425
vt 5.995675 20.340036
vt -3.048206 1.510195
vt -3.073206 1.466463
vt -5.583304 1.510195
vt -0.403869 16.03077
vt -0.553869 15.020453
vt 5.65618 0.714671
vt -0.556369 16.03077
vt -0.401369 16.02702
vt -0.398869 15.020453
vt -0.398869 16.02702
vt -5.65368 1.721239
vt -5.65368 0.714671
vt -5.65618 1.721239
vt -0.556369 15.024203
vt -5.65618 0.00375
vt -0.401369 15.020453
vt -5.65618 0.714671
vt 3.514732 20.346268
vt -4.839522 1.581925
vt 5.970675 19.668293
vt -3.073206 0.84226
vt -5.558304 0.84226
vt -3.098206 0.885992
vt 5.991521 20.346268
vt -2.561937 1.581925
vt 3.510577 20.340036
vt -5.558304 1.466463
vt 3.543887 19.655828
vt -4.692891 0.853985
vt -4.692891 1.581925
vt -4.663736 0.891485
vt 3.535577 19.668293
vt -5.533304 0.885992
vt 5.962366 19.655828
vt -2.708568 0.853985
vt -2.737723 0.891485
vt -2.708568 1.581925
vt 5.970675 20.296303
vt -3.073206 1.246516
vt -3.098206 1.202784
vt -5.558304 1.246516
vt 3.543887 20.308768
vt -4.663736 1.544425
vt 3.535577 19.643364
vt 5.970675 19.643364
vt -3.098206 0.891485
vt -5.533304 0.891485
vt -3.098206 1.544425
vt 5.962366 20.308768
vt -2.737723 1.544425
vt 3.535577 20.296303
vt -5.533304 1.202784
vt -5.533304 1.544425
vn 0 0 -1
vn 0 0 1
vn 1 0 0
vn -1 0 0
vn 0 -1 0
vn 0 1 0
vn -0.8574928374772542 0.5144959024863145 0
vn 0.8574928374772542 -0.5144959024863145 0
vn -0.8574928374772544 0 0.5144959024863143
vn 0.8574928374772544 0 -0.5144959024863143
vn -0.857492837477254 0 -0.5144959024863149
vn 0.857492837477254 0 0.5144959024863149
vn -0.8574928374772542 -0.5144959024863145 0
vn 0.8574928374772542 0.5144959024863145 0
usemtl material_0_0
f 1/1/1 2/2/1 3/3/1
f 2/2/1 1/1/1 4/4/1
f 3/5/2 2/6/2 1/7/2
f 4/8/2 1/7/2 2/6/2
f 5/9/1 3/3/1 2/2/1
f 2/6/2 3/5/2 5/10/2
f 6/11/3 3/12/3 1/13/3
f 1/14/4 3/15/4 6/16/4
f 7/17/5 1/18/5 4/19/5
f 4/20/6 1/21/6 7/22/6
f 2/2/1 4/4/1 8/23/1
f 8/24/2 4/8/2 2/6/2
f 3/3/1 5/9/1 9/25/1
f 9/26/2 5/10/2 3/5/2
f 5/27/3 10/28/3 2/29/3
f 2/30/4 10/31/4 5/32/4
f 8/23/1 5/9/1 2/2/1
f 2/6/2 5/10/2 8/24/2
f 3/12/3 6/11/3 11/33/3
f 11/34/4 6/16/4 3/15/4
f 1/18/5 7/17/5 6/35/5
f 6/36/6 7/22/6 1/21/6
f 12/37/4 7/17/4 4/19/4
f 4/38/3 7/39/3 12/40/3
f 8/23/1 4/4/1 13/41/1
f 13/42/2 4/8/2 8/24/2
f 2/43/5 14/44/5 8/45/5
f 8/46/6 14/47/6 2/48/6
f 9/25/1 5/9/1 13/41/1
f 13/42/2 5/10/2 9/26/2
f 3/12/6 15/49/6 9/50/6
f 9/51/5 15/52/5 3/53/5
f 10/28/3 5/27/3 16/54/3
f 16/55/4 5/32/4 10/31/4
f 14/44/5 2/43/5 10/28/5
f 10/56/6 2/48/6 14/47/6
f 5/9/1 8/23/1 13/41/1
f 13/42/2 8/24/2 5/10/2
f 17/57/1 11/33/1 6/11/1
f 6/7/2 11/5/2 17/10/2
f 15/49/6 3/12/6 11/33/6
f 11/58/5 3/53/5 15/52/5
f 18/59/1 6/11/1 7/60/1
f 7/8/2 6/7/2 18/6/2
f 7/17/4 12/37/4 15/61/4
f 15/62/3 12/40/3 7/39/3
f 12/37/4 4/19/4 19/63/4
f 19/64/3 4/38/3 12/40/3
f 9/25/1 13/41/1 4/4/1
f 4/8/2 13/42/2 9/26/2
f 8/65/4 20/66/4 13/67/4
f 13/68/3 20/69/3 8/70/3
f 20/66/4 8/65/4 14/44/4
f 14/71/3 8/70/3 20/69/3
f 5/9/5 20/72/5 13/41/5
f 21/73/4 9/74/4 15/61/4
f 15/62/3 9/75/3 21/76/3
f 20/72/5 5/9/5 16/77/5
f 16/54/2 14/44/2 10/28/2
f 10/78/1 14/79/1 16/80/1
f 11/33/1 17/57/1 15/81/1
f 15/26/2 17/10/2 11/5/2
f 6/11/1 18/59/1 17/57/1
f 17/10/2 18/6/2 6/7/2
f 18/59/1 7/60/1 22/82/1
f 22/24/2 7/8/2 18/6/2
f 15/61/4 12/37/4 23/83/4
f 23/84/3 12/40/3 15/62/3
f 22/82/1 7/60/1 15/81/1
f 15/26/2 7/8/2 22/24/2
f 9/74/4 19/63/4 4/19/4
f 4/38/3 19/64/3 9/75/3
f 24/85/7 12/37/7 19/63/7
f 19/86/8 12/87/8 24/88/8
f 14/44/2 16/54/2 20/66/2
f 20/89/1 16/80/1 14/79/1
f 19/63/4 9/74/4 21/73/4
f 21/76/3 9/75/3 19/64/3
f 15/61/4 23/83/4 21/73/4
f 21/76/3 23/84/3 15/62/3
f 15/81/1 17/57/1 25/90/1
f 25/42/2 17/10/2 15/26/2
f 18/59/1 25/90/1 17/57/1
f 17/10/2 25/42/2 18/6/2
f 18/59/3 26/91/3 17/57/3
f 17/92/4 26/93/4 18/94/4
f 25/90/1 18/59/1 22/82/1
f 22/24/2 18/6/2 25/42/2
f 27/95/5 18/59/5 22/82/5
f 22/96/6 18/97/6 27/98/6
f 28/99/9 23/83/9 12/37/9
f 12/100/10 23/101/10 28/102/10
f 15/81/1 25/90/1 22/82/1
f 22/24/2 25/42/2 15/26/2
f 12/37/7 24/85/7 28/103/7
f 28/104/8 24/88/8 12/87/8
f 21/73/11 24/105/11 19/63/11
f 19/106/12 24/107/12 21/108/12
f 23/83/13 29/109/13 21/73/13
f 21/110/14 29/111/14 23/112/14
f 30/113/5 17/57/5 25/90/5
f 26/91/3 18/59/3 31/114/3
f 31/115/4 18/94/4 26/93/4
f 17/57/5 30/113/5 26/116/5
f 30/117/4 22/118/4 25/119/4
f 25/120/3 22/121/3 30/122/3
f 18/59/5 27/95/5 31/123/5
f 31/124/6 27/98/6 18/97/6
f 22/118/4 30/117/4 27/125/4
f 27/126/3 30/122/3 22/121/3
f 23/83/9 28/99/9 32/127/9
f 32/128/10 28/102/10 23/101/10
f 33/129/13 28/103/13 24/85/13
f 24/130/14 28/131/14 33/132/14
f 24/105/11 21/73/11 29/133/11
f 29/134/12 21/108/12 24/107/12
f 29/109/13 23/83/13 32/135/13
f 32/136/14 23/112/14 29/111/14
f 31/114/1 30/117/1 26/91/1
f 26/10/2 30/42/2 31/6/2
f 30/117/1 31/114/1 27/125/1
f 27/24/2 31/6/2 30/42/2
f 34/137/11 32/127/11 28/99/11
f 28/138/12 32/139/12 34/140/12
f 28/103/13 33/129/13 34/141/13
f 34/142/14 33/132/14 28/131/14
f 29/133/9 33/143/9 24/105/9
f 24/144/10 33/145/10 29/146/10
f 32/135/7 35/147/7 29/109/7
f 29/148/8 35/149/8 32/150/8
f 32/127/11 34/137/11 36/151/11
f 36/152/12 34/140/12 32/139/12
f 35/147/4 34/153/4 33/154/4
f 33/155/3 34/156/3 35/157/3
f 33/143/9 29/133/9 35/158/9
f 35/159/10 29/146/10 33/145/10
f 35/147/7 32/135/7 36/160/7
f 36/161/8 32/150/8 35/149/8
f 34/153/4 35/147/4 36/160/4
f 36/162/3 35/157/3 34/156/3
usemtl material_1_0
f 13//6 20//6 5//6
f 16//6 5//6 20//6
f 25//6 17//6 30//6
f 26//6 30//6 17//6
