mtllib new-0.mtl
v 0.279368 -0.491302 0.346456
v 0.216150 -0.491302 0.346456
v 0.216150 -0.431494 0.346456
v 0.216150 0.448594 0.346456
v 0.279368 -0.431494 0.346456
v 0.216150 -0.491302 0.431439
v 0.216150 -0.431494 0.414578
v 0.216150 0.409523 0.346456
v 0.279368 0.448594 0.346456
v 0.279368 -0.431494 0.414578
v 0.279368 -0.491302 0.431439
v 0.216150 0.409523 0.414578
v 0.279368 0.409523 0.346456
v 0.279368 0.448594 0.431188
v 0.279368 0.409523 0.431439
v 0.216150 0.409523 0.431188
v 0.279368 0.409523 0.414578
v 0.216150 0.448594 0.431188
v 0.216150 0.409523 0.431439
v 0.279368 0.409523 0.431188
vn 0.000000 -1.000000 0.000000
vn -1.000000 0.000000 0.000000
vn 0.000000 0.000000 -1.000000
vn 1.000000 0.000000 0.000000
vn 0.000000 0.000000 1.000000
vn 0.000000 1.000000 0.000000
vt -1.301372 -0.171207
vt -1.172253 -0.397450
vt -1.172253 -0.171207
vt -1.301372 -0.397450
vt 0.270482 3.441849
vt 0.131348 3.545865
vt 0.131348 3.441849
vt 0.304405 3.441849
vt -1.172253 -0.352562
vt 0.304405 3.545865
vt -1.301372 -0.352562
vt 1.182130 7.206120
vt 2.434334 8.305489
vt 1.182130 8.305489
vt -2.434334 8.305489
vt -1.182130 7.206120
vt -1.182130 8.305489
vt 2.744270 7.206120
vt 11.712348 -2.434334
vt 10.550281 -1.182130
vt 10.550281 -2.434334
vt 11.712348 -2.739649
vt 11.712348 -1.182130
vt -2.744270 7.206120
vt 11.712348 23.764893
vt 10.550281 7.206120
vt 11.712348 7.206120
vt 2.739649 23.764893
vt -10.550281 23.764893
vt -11.712348 8.305489
vt -10.550281 8.305489
vt -1.182130 24.483089
vt -2.434334 23.764893
vt -1.182130 23.764893
vt 10.550281 -2.739649
vt -2.739649 24.483089
vt -2.744270 23.764893
vt 10.550281 23.764893
vt 2.744270 23.764893
vt 2.434334 23.764893
vt -11.712348 23.764893
vt 11.712348 24.483089
vt 10.550281 24.483089
vt -2.739649 23.764893
usemtl material-0
f 1/1/1 6/2/1 2/3/1
f 6/2/1 1/1/1 11/4/1
f 12/5/2 4/6/2 8/7/2
f 16/8/2 4/6/2 12/5/2
f 13/1/1 12/9/1 8/3/1
f 4/6/2 16/8/2 18/10/2
f 12/9/1 13/1/1 17/11/1
usemtl material-1
f 2//6 6//6 1//6
f 3//4 7//4 2//4
f 5//2 1//2 10//2
f 11//6 1//6 6//6
f 2//4 7//4 6//4
f 7//1 3//1 10//1
f 8//4 4//4 12//4
f 9//1 14//1 4//1
f 5//1 10//1 3//1
f 1//2 11//2 10//2
f 11//3 6//3 15//3
f 7//4 16//4 6//4
f 7//5 10//5 12//5
f 12//4 4//4 16//4
f 8//6 12//6 13//6
f 13//2 17//2 9//2
f 18//1 4//1 14//1
f 9//2 17//2 14//2
f 15//2 10//2 11//2
f 19//3 15//3 6//3
f 19//4 6//4 16//4
f 12//4 16//4 7//4
f 17//5 12//5 10//5
f 18//4 16//4 4//4
f 17//1 16//1 12//1
f 12//6 16//6 17//6
f 17//6 13//6 12//6
f 18//3 14//3 16//3
f 20//2 14//2 17//2
f 20//2 10//2 15//2
f 19//1 20//1 15//1
f 15//6 20//6 19//6
f 20//1 19//1 16//1
f 16//6 19//6 20//6
f 10//2 20//2 17//2
f 16//1 17//1 20//1
f 20//6 17//6 16//6
f 20//3 16//3 14//3
usemtl material-3
f 2/12/2 7/13/2 3/14/2
f 10/15/4 1/16/4 5/17/4
f 6/18/2 7/13/2 2/12/2
f 10/19/6 3/20/6 7/21/6
f 4/20/6 14/22/6 9/23/6
f 3/20/6 10/19/6 5/23/6
f 10/15/4 11/24/4 1/16/4
f 15/25/5 6/26/5 11/27/5
f 6/18/2 16/28/2 7/13/2
f 12/29/3 10/30/3 7/31/3
f 9/32/4 17/33/4 13/34/4
f 14/22/6 4/20/6 18/35/6
f 14/36/4 17/33/4 9/32/4
f 11/24/4 10/15/4 15/37/4
f 6/26/5 15/25/5 19/38/5
f 16/28/2 6/18/2 19/39/2
f 7/13/2 16/28/2 12/40/2
f 10/30/3 12/29/3 17/41/3
f 16/38/5 14/42/5 18/43/5
f 17/33/4 14/36/4 20/44/4
f 15/37/4 10/15/4 20/44/4
f 17/33/4 20/44/4 10/15/4
f 14/42/5 16/38/5 20/25/5