mtllib new-2.mtl
v -0.357803 -0.883327 0.336375
v 0.330857 -0.883327 0.282147
v 0.330857 -0.883327 0.336375
v -0.357803 0.868425 0.336375
v 0.321933 -0.874402 0.336375
v 0.330857 0.868425 0.336375
v -0.348878 -0.874402 0.336375
v 0.330857 0.868425 0.282147
v -0.348878 0.857475 0.336375
v 0.321933 0.857475 0.336375
v -0.348878 -0.874402 0.346456
v 0.321933 0.857475 0.346456
v 0.321933 -0.874402 0.346456
v -0.348878 0.857475 0.346456
v 0.279368 -0.491302 0.346456
v 0.216150 -0.491302 0.346456
v 0.216150 -0.431494 0.346456
v 0.216150 0.448594 0.346456
v 0.279368 -0.431494 0.346456
v -0.031182 0.200475 0.346456
v 0.216150 0.409523 0.346456
v 0.279368 0.448594 0.346456
v 0.033147 0.078495 0.346456
v -0.031182 0.285786 0.346456
v 0.033147 0.307885 0.346456
v 0.279368 0.409523 0.346456
v 0.170039 0.078495 0.346456
v 0.014988 0.200475 0.346456
v -0.031182 0.200475 0.352582
v 0.042504 0.078495 0.337100
v -0.031182 0.221803 0.352582
v 0.014988 0.285786 0.346456
v 0.065652 0.307885 0.346456
v 0.170039 0.307885 0.346456
v 0.033147 0.078495 0.286840
v 0.160683 0.078495 0.337100
v -0.008097 0.200475 0.352582
v -0.031182 0.243130 0.352582
v -0.008097 0.221803 0.352582
v -0.008097 0.285786 0.352582
v 0.137535 0.307885 0.346456
v 0.065652 0.307885 0.286840
v 0.170039 0.307885 0.286840
v 0.042504 0.078495 0.296196
v 0.160683 0.078495 0.296196
v 0.160683 0.072278 0.337100
v 0.014988 0.285786 0.352582
v 0.033147 0.307885 0.286840
v 0.014988 0.200475 0.352582
v -0.031182 0.264458 0.352582
v -0.008097 0.243130 0.352582
v -0.031182 0.285786 0.352582
v 0.137535 0.307885 0.336690
v 0.065652 0.307885 0.336690
v 0.170039 0.078495 0.286840
v 0.042504 0.072278 0.296196
v 0.042504 0.072278 0.337100
v 0.014988 0.264458 0.352582
v 0.083623 0.276759 0.286840
v 0.014988 0.221803 0.352582
v -0.008097 0.264458 0.352582
v 0.014988 0.243130 0.352582
v 0.066877 0.298583 0.286840
v 0.066877 0.298583 0.336690
v 0.137535 0.307885 0.286840
v 0.160683 0.072278 0.296196
v 0.092291 0.273168 0.286840
v 0.076179 0.282471 0.286840
v 0.070467 0.289914 0.286840
v 0.136310 0.317187 0.286840
v 0.119564 0.276759 0.286840
v 0.101593 0.271944 0.286840
v 0.083623 0.276759 0.336690
v 0.076179 0.282471 0.336690
v 0.127008 0.282471 0.286840
v 0.136310 0.298583 0.336690
v 0.136310 0.298583 0.286840
v 0.070467 0.289914 0.336690
v 0.066877 0.317187 0.286840
v 0.110896 0.273168 0.286840
v 0.092291 0.273168 0.325190
v 0.092291 0.273168 0.336690
v 0.132720 0.289914 0.286840
v 0.070467 0.325856 0.286840
v 0.119564 0.276759 0.336690
v 0.110896 0.273168 0.325190
v 0.101593 0.271944 0.336690
v 0.127008 0.282471 0.336690
v 0.132720 0.289914 0.336690
v 0.132720 0.325856 0.286840
v 0.110896 0.273168 0.336690
v 0.127008 0.333300 0.286840
v 0.076179 0.333300 0.286840
v 0.119564 0.339011 0.286840
v 0.083623 0.339011 0.286840
v 0.110896 0.342602 0.286840
v 0.092291 0.342602 0.286840
v 0.101593 0.343827 0.286840
vn 0.000000 -1.000000 0.000000
vn -1.000000 0.000000 0.000000
vn 0.000000 0.000000 -1.000000
vn 1.000000 0.000000 0.000000
vn 0.000000 0.000000 1.000000
vn 0.000000 1.000000 0.000000
vn 0.991445 0.130526 0.000000
vn 0.965926 0.258819 0.000000
vn 0.500000 0.866025 0.000000
vn 0.173373 0.984856 0.000000
vn 0.707107 0.707107 0.000000
vn -0.991445 0.130526 0.000000
vn -0.965926 0.258819 0.000000
vn 0.866025 0.500000 0.000000
vn 0.258819 0.965926 0.000000
vn -0.500000 0.866025 0.000000
vn -0.707107 0.707107 0.000000
vn -0.173373 0.984856 0.000000
vn 0.173373 -0.984856 0.000000
vn -0.173373 -0.984856 0.000000
vn -0.866025 0.500000 0.000000
vn -0.258819 0.965926 0.000000
vn -0.991445 -0.130526 0.000000
vn -0.965926 -0.258819 0.000000
vn -0.500000 -0.866025 0.000000
vn -0.707107 -0.707107 0.000000
vn 0.991445 -0.130526 0.000000
vn 0.965926 -0.258819 0.000000
vn -0.866025 -0.500000 0.000000
vn -0.258819 -0.965926 0.000000
vn 0.707107 -0.707107 0.000000
vn 0.500000 -0.866025 0.000000
vn 0.866025 -0.500000 0.000000
vn 0.258819 -0.965926 0.000000
vt 0.000000 -0.144367
vt -1.406534 0.000000
vt 0.000000 4.663547
vt 0.000000 0.000000
vt -1.406534 -0.144367
vt 1.406534 0.000000
vt 1.388306 0.023759
vt 0.018228 0.023759
vt 1.406534 4.663547
vt 0.018228 4.634395
vt 1.388306 4.634395
vt -1.388306 -0.144367
vt -0.018228 -0.171207
vt -0.018228 -0.144367
vt 0.131348 0.023759
vt 0.110757 4.634395
vt 0.110757 0.023759
vt -1.388306 -0.171207
vt 0.131348 4.634395
vt 0.018228 -0.144367
vt 1.388306 -0.171207
vt 1.388306 -0.144367
vt 1.301372 1.043656
vt 1.172253 1.043656
vt 0.018228 -0.171207
vt 1.172253 1.202877
vt 1.172253 3.545865
vt 1.301372 1.202877
vt 0.667097 2.885316
vt 1.172253 3.441849
vt 1.301372 3.545865
vt 0.798485 2.560579
vt 0.667097 3.112435
vt 0.798485 3.171266
vt 1.301372 3.441849
vt 1.078076 2.560579
vt 0.761395 2.885316
vt 0.143860 2.885316
vt 0.131348 3.112435
vt 0.131348 2.885316
vt -0.761395 -0.171207
vt -0.667097 -0.187516
vt -0.667097 -0.171207
vt 0.143860 2.942095
vt 0.761395 3.112435
vt 0.864873 3.171266
vt 1.078076 3.171266
vt -0.009585 2.560579
vt -0.131348 3.171266
vt -0.131348 2.560579
vt -0.714246 -0.187516
vt 0.143860 2.998875
vt 0.667097 -0.171207
vt 0.714246 -0.187516
vt 0.761395 -0.171207
vt 1.011688 3.171266
vt 0.009585 3.171266
vt 0.131348 2.560579
vt 0.131348 3.171266
vt -0.143860 3.112435
vt -0.131348 2.885316
vt -0.131348 3.112435
vt -0.009585 3.171266
vt -0.761395 -0.187516
vt 0.143860 3.055655
vt 0.667097 -0.187516
vt 0.761395 -0.187516
vt 0.009585 2.560579
vt -0.143860 3.055655
vt -0.143860 2.942095
vt -0.143860 2.885316
vt 0.143860 3.112435
vt -0.143860 2.998875
vt -0.498405 16.100168
vt -0.498405 0.000000
vt 0.000000 16.100168
vt -0.591065 15.999525
vt -0.498405 0.082024
vt -0.498405 15.999525
vt -0.591065 0.082024
vt 0.103301 7.071999
vt 0.404059 7.026289
vt 0.404059 7.071999
vt 2.943340 7.026289
vt 3.812281 7.071999
vt 2.943340 7.071999
vt 0.103301 7.026289
vt 3.812281 -0.404059
vt 2.943340 -0.103301
vt 2.943340 -0.404059
vt 3.812281 7.026289
vt 3.812281 -0.103301
usemtl material-0
f 3/5/1 1/1/1 2/2/1
f 3/6/5 5/7/5 1/4/5
f 1/4/5 7/8/5 4/3/5
f 5/7/5 3/6/5 6/9/5
f 7/8/5 1/4/5 5/7/5
f 4/3/5 7/8/5 9/10/5
f 4/3/5 9/10/5 6/9/5
f 5/7/5 6/9/5 10/11/5
f 5/12/1 11/13/1 7/14/1
f 11/15/2 9/16/2 7/17/2
f 10/11/5 6/9/5 9/10/5
f 11/13/1 5/12/1 13/18/1
f 9/16/2 11/15/2 14/19/2
f 9/20/6 12/21/6 10/22/6
f 13/7/5 15/23/5 11/8/5
f 11/8/5 16/24/5 14/10/5
f 12/21/6 9/20/6 14/25/6
f 15/23/5 13/7/5 12/11/5
f 16/24/5 11/8/5 15/23/5
f 14/10/5 16/24/5 17/26/5
f 14/10/5 18/27/5 12/11/5
f 15/23/5 12/11/5 19/28/5
f 14/10/5 17/26/5 20/29/5
f 14/10/5 21/30/5 18/27/5
f 22/31/5 12/11/5 18/27/5
f 19/28/5 12/11/5 17/26/5
f 20/29/5 17/26/5 23/32/5
f 14/10/5 20/29/5 24/33/5
f 14/10/5 25/34/5 21/30/5
f 26/35/5 12/11/5 22/31/5
f 17/26/5 12/11/5 26/35/5
f 23/32/5 17/26/5 27/36/5
f 20/29/5 23/32/5 28/37/5
f 29/38/2 24/39/2 20/40/2
f 14/10/5 24/33/5 25/34/5
f 21/30/5 25/34/5 26/35/5
f 17/26/5 26/35/5 27/36/5
f 25/34/5 28/37/5 23/32/5
f 28/41/1 29/42/1 20/43/1
f 31/44/2 24/39/2 29/38/2
f 32/45/5 25/34/5 24/33/5
f 33/46/5 26/35/5 25/34/5
f 27/36/5 26/35/5 34/47/5
f 28/37/5 25/34/5 32/45/5
f 35/48/4 25/49/4 23/50/4
f 29/42/1 28/41/1 37/51/1
f 38/52/2 24/39/2 31/44/2
f 24/53/6 40/54/6 32/55/6
f 41/56/5 26/35/5 33/46/5
f 34/47/5 26/35/5 41/56/5
f 43/57/2 27/58/2 34/59/2
f 47/60/4 28/61/4 32/62/4
f 25/49/4 35/48/4 48/63/4
f 37/51/1 28/41/1 49/64/1
f 50/65/2 24/39/2 38/52/2
f 40/54/6 24/53/6 52/66/6
f 32/55/6 40/54/6 47/67/6
f 27/58/2 43/57/2 55/68/2
f 58/69/4 28/61/4 47/60/4
f 28/61/4 60/70/4 49/71/4
f 24/39/2 50/65/2 52/72/2
f 62/73/4 28/61/4 58/69/4
f 60/70/4 28/61/4 62/73/4
usemtl material-1
f 2//6 1//6 3//6
f 1//3 5//3 3//3
f 3//2 6//2 2//2
f 4//3 7//3 1//3
f 6//3 3//3 5//3
f 5//3 1//3 7//3
f 8//2 2//2 6//2
f 9//3 7//3 4//3
f 6//3 9//3 4//3
f 10//3 6//3 5//3
f 7//6 11//6 5//6
f 7//4 9//4 11//4
f 9//3 6//3 10//3
f 10//2 5//2 12//2
f 13//6 5//6 11//6
f 14//4 11//4 9//4
f 10//1 12//1 9//1
f 13//2 12//2 5//2
f 11//3 15//3 13//3
f 14//3 16//3 11//3
f 14//1 9//1 12//1
f 12//3 13//3 15//3
f 15//3 11//3 16//3
f 17//3 16//3 14//3
f 12//3 18//3 14//3
f 19//3 12//3 15//3
f 20//3 17//3 14//3
f 18//3 21//3 14//3
f 18//3 12//3 22//3
f 17//3 12//3 19//3
f 23//3 17//3 20//3
f 24//3 20//3 14//3
f 21//3 25//3 14//3
f 22//3 12//3 26//3
f 26//3 12//3 17//3
f 27//3 17//3 23//3
f 28//3 23//3 20//3
f 20//4 24//4 29//4
f 25//3 24//3 14//3
f 26//3 25//3 21//3
f 27//3 26//3 17//3
f 27//1 23//1 30//1
f 23//3 28//3 25//3
f 20//6 29//6 28//6
f 29//4 24//4 31//4
f 24//3 25//3 32//3
f 25//3 26//3 33//3
f 34//3 26//3 27//3
f 35//1 30//1 23//1
f 36//1 27//1 30//1
f 32//3 25//3 28//3
f 23//2 25//2 35//2
f 37//6 28//6 29//6
f 31//4 24//4 38//4
f 31//3 39//3 29//3
f 32//1 40//1 24//1
f 33//3 26//3 41//3
f 33//6 42//6 25//6
f 41//3 26//3 34//3
f 34//4 27//4 43//4
f 30//1 35//1 44//1
f 45//1 27//1 36//1
f 46//3 30//3 36//3
f 36//5 30//5 46//5
f 32//2 28//2 47//2
f 48//2 35//2 25//2
f 49//6 28//6 37//6
f 37//3 29//3 39//3
f 38//4 24//4 50//4
f 38//3 51//3 31//3
f 39//3 31//3 51//3
f 52//1 24//1 40//1
f 47//1 40//1 32//1
f 41//6 53//6 33//6
f 48//6 25//6 42//6
f 54//6 42//6 33//6
f 34//6 43//6 41//6
f 55//4 43//4 27//4
f 55//1 44//1 35//1
f 30//4 56//4 44//4
f 44//2 56//2 30//2
f 27//1 45//1 55//1
f 36//4 46//4 45//4
f 30//3 46//3 57//3
f 57//5 46//5 30//5
f 47//2 28//2 58//2
f 48//3 59//3 35//3
f 49//2 60//2 28//2
f 49//3 37//3 60//3
f 39//3 60//3 37//3
f 52//4 50//4 24//4
f 50//3 61//3 38//3
f 51//3 38//3 61//3
f 51//3 62//3 39//3
f 52//3 40//3 50//3
f 40//3 47//3 61//3
f 54//6 33//6 53//6
f 41//6 43//6 53//6
f 42//3 63//3 48//3
f 54//7 64//8 42//7
f 65//1 54//1 42//1
f 42//6 54//6 65//6
f 55//3 35//3 43//3
f 45//1 44//1 55//1
f 56//4 30//4 57//4
f 57//2 30//2 56//2
f 44//3 45//3 56//3
f 66//4 45//4 46//4
f 57//1 56//1 46//1
f 58//2 28//2 62//2
f 58//3 61//3 47//3
f 67//3 35//3 59//3
f 68//3 59//3 48//3
f 62//2 28//2 60//2
f 60//3 39//3 62//3
f 61//3 50//3 40//3
f 61//3 58//3 51//3
f 62//3 51//3 58//3
f 54//3 53//3 64//3
f 54//1 65//1 53//1
f 53//6 65//6 54//6
f 65//6 53//6 43//6
f 63//3 69//3 48//3
f 63//8 42//7 64//8
f 63//5 65//5 42//5
f 42//3 65//3 63//3
f 70//5 42//5 65//5
f 65//3 42//3 70//3
f 71//3 43//3 35//3
f 66//3 56//3 45//3
f 66//1 46//1 56//1
f 72//3 35//3 67//3
f 59//9 73//9 67//10
f 67//5 71//5 59//5
f 59//3 71//3 67//3
f 68//11 74//11 59//9
f 59//5 75//5 68//5
f 68//3 75//3 59//3
f 69//3 68//3 48//3
f 53//3 76//3 64//3
f 65//12 77//13 53//12
f 65//3 43//3 77//3
f 69//14 63//8 78//14
f 69//5 77//5 63//5
f 63//3 77//3 69//3
f 64//8 78//14 63//8
f 63//5 77//5 65//5
f 65//3 77//3 63//3
f 42//5 70//5 79//5
f 79//3 70//3 42//3
f 75//3 43//3 71//3
f 80//3 71//3 35//3
f 72//3 80//3 35//3
f 67//10 81//10 72//6
f 67//5 72//5 80//5
f 80//3 72//3 67//3
f 82//15 67//10 73//9
f 73//9 59//9 74//11
f 71//5 67//5 80//5
f 80//3 67//3 71//3
f 59//5 71//5 75//5
f 75//3 71//3 59//3
f 68//11 69//14 74//11
f 68//5 75//5 83//5
f 83//3 75//3 68//3
f 68//5 83//5 69//5
f 69//3 83//3 68//3
f 64//3 76//3 78//3
f 76//13 53//12 77//13
f 77//3 43//3 83//3
f 78//14 74//11 69//14
f 69//5 83//5 77//5
f 77//3 83//3 69//3
f 79//5 70//5 84//5
f 84//3 70//3 79//3
f 83//3 43//3 75//3
f 71//16 85//16 75//17
f 80//18 86//18 71//16
f 72//6 87//6 80//18
f 82//15 72//6 81//10
f 81//10 67//10 82//15
f 80//19 81//20 67//20
f 67//10 81//10 80//18
f 73//3 85//3 82//3
f 74//3 88//3 73//3
f 83//21 75//17 89//21
f 76//3 89//3 78//3
f 77//13 83//21 76//13
f 78//3 89//3 74//3
f 84//5 70//5 90//5
f 90//3 70//3 84//3
f 88//17 75//17 85//16
f 85//16 71//16 91//22
f 91//22 71//16 86//18
f 86//18 80//18 91//22
f 81//20 80//19 86//19
f 86//18 80//18 81//10
f 91//22 80//18 87//6
f 87//6 72//6 82//15
f 85//3 91//3 82//3
f 88//3 85//3 73//3
f 89//3 88//3 74//3
f 88//17 89//21 75//17
f 89//21 76//13 83//21
f 84//5 90//5 92//5
f 92//3 90//3 84//3
f 87//3 82//3 91//3
f 84//5 92//5 93//5
f 93//3 92//3 84//3
f 93//5 92//5 94//5
f 94//3 92//3 93//3
f 93//5 94//5 95//5
f 95//3 94//3 93//3
f 95//5 94//5 96//5
f 96//3 94//3 95//3
f 95//5 96//5 97//5
f 97//3 96//3 95//3
f 97//5 96//5 98//5
f 98//3 96//3 97//3
usemtl material-2
f 2/4/4 6/74/4 3/75/4
f 6/74/4 2/4/4 8/76/4
f 12/77/4 5/78/4 10/79/4
f 5/78/4 12/77/4 13/80/4
usemtl material-4
f 30//6 23//6 27//6
f 23//6 30//6 35//6
f 30//6 27//6 36//6
f 29//5 39//5 31//5
f 25//1 42//1 33//1
f 44//6 35//6 30//6
f 36//6 27//6 45//6
f 39//5 29//5 37//5
f 31//5 51//5 38//5
f 51//5 31//5 39//5
f 33//1 53//1 41//1
f 42//1 25//1 48//1
f 33//1 42//1 54//1
f 41//1 43//1 34//1
f 35//6 44//6 55//6
f 55//6 45//6 27//6
f 60//5 37//5 49//5
f 37//5 60//5 39//5
f 38//5 61//5 50//5
f 61//5 38//5 51//5
f 39//5 62//5 51//5
f 50//5 40//5 52//5
f 61//5 47//5 40//5
f 53//1 33//1 54//1
f 53//1 43//1 41//1
f 42//23 64//24 54//23
f 55//6 44//6 45//6
f 47//5 61//5 58//5
f 62//5 39//5 60//5
f 40//5 50//5 61//5
f 51//5 58//5 61//5
f 58//5 51//5 62//5
f 64//5 53//5 54//5
f 43//1 53//1 65//1
f 64//24 42//23 63//24
f 67//20 73//25 59//25
f 59//25 74//26 68//26
f 64//5 76//5 53//5
f 53//27 77//28 65//27
f 78//29 63//24 69//29
f 63//24 78//29 64//24
f 72//1 81//20 67//20
f 73//25 67//20 82//30
f 74//26 59//25 73//25
f 74//26 69//29 68//26
f 78//5 76//5 64//5
f 77//28 53//27 76//28
f 69//29 74//26 78//29
f 75//31 85//32 71//32
f 71//32 86//19 80//19
f 80//19 87//1 72//1
f 81//20 72//1 82//30
f 82//30 67//20 81//20
f 82//5 85//5 73//5
f 73//5 88//5 74//5
f 89//33 75//31 83//33
f 78//5 89//5 76//5
f 76//28 83//33 77//28
f 74//5 89//5 78//5
f 85//32 75//31 88//31
f 91//34 71//32 85//32
f 86//19 71//32 91//34
f 91//34 80//19 86//19
f 87//1 80//19 91//34
f 82//30 72//1 87//1
f 82//5 91//5 85//5
f 73//5 85//5 88//5
f 74//5 88//5 89//5
f 75//31 89//33 88//31
f 83//33 76//28 89//33
f 91//5 82//5 87//5
usemtl material-5
f 45/81/2 46/82/2 36/83/2
f 56/84/5 45/85/5 44/86/5
f 46/82/2 45/81/2 66/87/2
f 46/88/6 56/89/6 57/90/6
f 45/85/5 56/84/5 66/91/5
f 56/89/6 46/88/6 66/92/6
usemtl material-6
f 35//5 59//5 48//5
f 48//5 63//5 42//5
f 43//5 35//5 55//5
f 59//5 35//5 67//5
f 48//5 59//5 68//5
f 48//5 69//5 63//5
f 35//5 43//5 71//5
f 67//5 35//5 72//5
f 48//5 68//5 69//5
f 77//5 43//5 65//5
f 71//5 43//5 75//5
f 35//5 71//5 80//5
f 35//5 80//5 72//5
f 83//5 43//5 77//5
f 75//5 43//5 83//5